<?xml version="1.0" encoding="utf-8"?>
<!-- Generator: Adobe Illustrator 27.7.0, SVG Export Plug-In . SVG Version: 6.00 Build 0)  -->
<svg version="1.1" id="Layer_1" xmlns="http://www.w3.org/2000/svg" xmlns:xlink="http://www.w3.org/1999/xlink" x="0px" y="0px"
	 viewBox="0 0 164.9 153.7" style="enable-background:new 0 0 164.9 153.7;" xml:space="preserve">
<style type="text/css">
	.st0{fill:#A1CF6D;}
	.st1{fill:#FFFFFF;stroke:#000000;stroke-width:4.6017;stroke-miterlimit:10;}
	.st2{stroke:#000000;stroke-miterlimit:10;}
</style>
<g>
	<g>
		<path class="st0" d="M70.5,9.7C38.4,6,26.8,19.7,26,49.4C13,49,2.5,62.3,2.5,75.3c0,11.7,5.5,32.3,26.6,32.3
			c9.6-1.3,1.8,22.6,14.2,17.8c3.7,24,37.1,34.1,54.4,18c21.2,13.3,40.5-16.2,42.9-35.6c30.5,23.4,29.2-48.9-4.9-34.5
			c16.8-12.6,9.6-42.2-13.6-34.8c17.8-41.5-59-50.1-54.6-9.9L70.5,9.7z"/>
		<g>
			<path d="M70.5,7.2c-10-1.2-21.1-1.1-30.1,3.9c-7.7,4.3-12.4,12-14.6,20.3c-1.6,5.8-2.1,12-2.3,18c0.8-0.8,1.7-1.7,2.5-2.5
				C14.6,46.6,5.4,55.5,1.7,65.7c-2.8,7.8-1.9,17,0.9,24.7c2.9,8.1,8.4,15.1,16.7,18.1c2.4,0.9,4.9,1.3,7.4,1.5c1,0.1,2.1,0.1,3.1,0
				c0.2,0,0.3,0,0.5,0c-0.1,0-0.5-0.2-0.2,0c0.1,0,0.3,0.1,0.4,0.1c0.4,0-0.5-0.3,0,0c0.5,0.3-0.3-0.4,0.1,0.1
				c0.1,0.1,0.2,0.2,0.3,0.3c0.4,0.3-0.3-0.4-0.1-0.1c0.1,0.2,0.3,0.5,0.4,0.7c0.1,0.1,0.1,0.3,0.2,0.4c-0.3-0.6-0.1-0.2,0,0
				c0.4,1.3,0.7,2.7,0.9,4c0.5,3.2,0.7,6.6,2.3,9.5c2,3.5,5.8,4.1,9.4,2.8c-1-0.6-2.1-1.2-3.1-1.7c3.2,20,25.7,31.2,44.4,26.7
				c5.3-1.3,10.2-3.9,14.2-7.6c-1,0.1-2,0.3-3,0.4c3.9,2.4,8.5,3.9,13.2,3.6c4.4-0.3,8.5-1.9,12.1-4.3c7.8-5.3,13.4-13.5,17.1-22.1
				c2.1-4.8,3.6-9.8,4.2-15c-1.3,0.7-2.5,1.4-3.8,2.2c4.4,3.4,10.6,6.5,16.2,4.3c4.7-1.8,7.4-6.4,8.6-11.2
				c2.6-10.5-0.4-24.1-9.3-30.8c-5.8-4.3-13.3-4.1-19.7-1.4c0.6,1.5,1.3,3,1.9,4.6c6.7-5.1,10.8-13.1,10.4-21.6
				C147,46.2,143,38.9,135.7,36c-4.6-1.8-9.7-1.4-14.3,0c0.9,1.2,1.9,2.4,2.8,3.7c3.1-7.3,4.2-15.3,1-22.7
				c-2.6-6-7.9-10.6-13.8-13.3c-6.3-2.9-13.3-4.2-20.2-3.6c-6.7,0.5-13.4,2.6-18.6,7.1c-5.4,4.6-8,11.5-7.9,18.4
				c0,1,0.1,1.9,0.2,2.9c0.1,1.2,0.8,2.3,2.2,2.5c1.1,0.1,2.5-0.5,2.7-1.8c1-6.3,2-12.5,3-18.8c0.2-1.3-0.3-2.7-1.7-3.1
				C70,7,68.3,7.7,68.1,9.1c-1,6.3-2,12.5-3,18.8c1.6,0.2,3.3,0.4,4.9,0.7c-0.2-1.8-0.2-3.6-0.1-5.4c0-0.2,0.2-1.4,0.1-0.7
				c0.1-0.4,0.1-0.8,0.2-1.2c0.2-0.8,0.4-1.6,0.6-2.4c0.1-0.3,0.2-0.7,0.4-1c0.1-0.2,0.1-0.3,0.2-0.5c0.2-0.6-0.2,0.5,0-0.1
				c0.3-0.7,0.7-1.4,1.1-2c0.4-0.6,0.7-1.2,1.2-1.7c0.4-0.5-0.4,0.4,0,0c0.1-0.1,0.2-0.3,0.3-0.4c0.3-0.3,0.5-0.6,0.8-0.9
				c0.5-0.5,1-1,1.5-1.4c0.3-0.2,0.5-0.4,0.8-0.7c-0.6,0.4,0.4-0.3,0.6-0.4c1.2-0.8,2.5-1.5,3.8-2.1c0.2-0.1,0.3-0.1,0.5-0.2
				c0.6-0.2-0.5,0.2,0.1,0c0.3-0.1,0.7-0.3,1-0.4c0.7-0.2,1.4-0.5,2.1-0.7c1.5-0.4,3-0.7,4.5-0.9c0.6-0.1-0.6,0.1,0.1,0
				c0.2,0,0.4,0,0.6-0.1c0.4,0,0.7-0.1,1.1-0.1C92.1,5.1,92.9,5,93.7,5c1.6,0,3.2,0.1,4.7,0.2c0.2,0,1.4,0.2,0.7,0.1
				c0.4,0.1,0.8,0.1,1.1,0.2c0.8,0.1,1.6,0.3,2.4,0.5c1.5,0.4,3,0.8,4.5,1.4c0.3,0.1,0.7,0.3,1,0.4c0.6,0.2-0.5-0.2,0.1,0
				c0.2,0.1,0.3,0.1,0.5,0.2c0.7,0.3,1.4,0.7,2.1,1.1c1.3,0.7,2.5,1.5,3.6,2.3c-0.6-0.4,0.3,0.3,0.5,0.4c0.3,0.2,0.5,0.5,0.8,0.7
				c0.6,0.5,1.1,1,1.6,1.6c0.2,0.3,0.5,0.5,0.7,0.8c0.1,0.1,0.2,0.3,0.3,0.4c0.4,0.5-0.3-0.4,0,0c0.4,0.6,0.9,1.2,1.3,1.9
				c0.4,0.7,0.8,1.4,1.1,2.2c0.3,0.6-0.2-0.5,0,0.1c0.1,0.2,0.2,0.4,0.3,0.7c0.1,0.4,0.3,0.8,0.4,1.2c0.2,0.8,0.4,1.7,0.6,2.5
				c0,0.1,0.1,0.8,0,0.1c0,0.3,0.1,0.5,0.1,0.8c0,0.4,0.1,0.9,0.1,1.3c0,0.9,0,1.9-0.1,2.8c0,0.2,0,0.4-0.1,0.6c-0.1,0.7,0,0,0,0.4
				c-0.1,0.5-0.2,1-0.3,1.5c-0.2,1-0.5,2.1-0.8,3.1c-0.2,0.5-0.4,1.1-0.6,1.6c-0.1,0.2-0.2,0.5-0.3,0.7c0,0.1-0.4,0.9-0.2,0.6
				c-0.4,0.9-0.5,1.9,0.2,2.8c0.6,0.8,1.7,1.2,2.6,0.9c3.6-1.1,7.1-1.5,10.3-0.5c0.4,0.1,0.7,0.2,1.1,0.4c0.7,0.3-0.4-0.2,0.2,0.1
				c0.1,0.1,0.3,0.1,0.4,0.2c0.7,0.4,1.4,0.8,2.1,1.2c0.6,0.4-0.4-0.3,0.2,0.1c0.1,0.1,0.2,0.2,0.3,0.3c0.3,0.2,0.5,0.5,0.8,0.7
				c0.3,0.3,0.5,0.5,0.7,0.8c0,0.1,0.5,0.6,0.2,0.2c0.1,0.2,0.3,0.3,0.4,0.5c0.4,0.6,0.8,1.2,1.1,1.9c0.2,0.3,0.3,0.7,0.5,1
				c0.3,0.6-0.1-0.3,0,0.1c0.1,0.2,0.2,0.5,0.3,0.7c0.2,0.7,0.5,1.4,0.6,2.2c0.1,0.4,0.2,0.7,0.2,1.1c0,0,0.1,0.7,0.1,0.4
				c0-0.3,0.1,0.5,0.1,0.6c0.1,0.8,0.1,1.6,0.1,2.3c0,0.4,0,0.8,0,1.2c0,0.2,0,0.3,0,0.5c0,0.1-0.1,1,0,0.5c-0.2,1.7-0.7,3.4-1.3,5
				c-0.3,0.7-0.5,1.2-1,2.1c-0.5,0.9-1,1.8-1.6,2.6c-0.3,0.4-0.3,0.4-0.7,0.9c-0.3,0.4-0.7,0.8-1.1,1.2c-0.6,0.7-1.6,1.5-2.2,1.9
				c-1,0.8-1.6,1.9-1,3.1c0.4,1,1.8,1.9,2.9,1.4c1.5-0.6,3.1-1.2,4.7-1.5c0.3-0.1,0.7-0.1,1-0.2c0.2,0,0.6-0.1,0,0
				c0.2,0,0.4,0,0.6-0.1c0.7-0.1,1.4-0.1,2.1-0.1c0.3,0,0.6,0,0.9,0c0.2,0,0.3,0,0.5,0c0.6,0-0.6-0.1,0,0c0.6,0.1,1.2,0.2,1.7,0.4
				c0.3,0.1,0.6,0.2,0.9,0.3c0.2,0.1,1,0.4,0.3,0.1c0.6,0.3,1.1,0.5,1.7,0.8c0.5,0.3,1,0.6,1.4,0.9c0.4,0.3-0.4-0.4,0,0
				c0.1,0.1,0.2,0.1,0.2,0.2c0.3,0.2,0.5,0.5,0.8,0.7c0.4,0.4,0.8,0.8,1.2,1.2c0.2,0.2,0.3,0.4,0.5,0.6c0.4,0.4-0.3-0.5,0,0
				c0.1,0.1,0.2,0.3,0.3,0.4c0.7,1,1.4,2.1,1.9,3.2c0.1,0.3,0.3,0.5,0.4,0.8c0.1,0.2,0.5,1.1,0.2,0.4c0.3,0.6,0.5,1.2,0.7,1.9
				c0.4,1.2,0.7,2.4,1,3.6c0.1,0.6,0.2,1.2,0.3,1.8c0,0.2,0,0.3,0.1,0.5c-0.1-0.7,0-0.1,0,0c0,0.3,0.1,0.7,0.1,1
				c0.1,1.3,0.2,2.5,0.1,3.8c0,0.6,0,1.2-0.1,1.8c0,0.3-0.1,0.5-0.1,0.8c0,0.2,0,0.3-0.1,0.5c0.1-0.8,0-0.2,0,0
				c-0.2,1.1-0.4,2.3-0.8,3.4c-0.2,0.5-0.4,1-0.5,1.5c-0.2,0.5,0.3-0.5,0-0.1c0,0.1-0.1,0.2-0.1,0.3c-0.1,0.3-0.3,0.6-0.4,0.9
				c-0.2,0.4-0.5,0.8-0.7,1.2c-0.1,0.2-0.3,0.4-0.4,0.6c0.5-0.7,0,0-0.2,0.2c-0.3,0.3-0.6,0.7-1,1c-0.1,0.1-0.2,0.1-0.3,0.2
				c-0.3,0.3,0.5-0.3,0.1-0.1c-0.2,0.1-0.4,0.3-0.6,0.4c-0.2,0.1-0.4,0.2-0.6,0.3c-0.7,0.4,0.5-0.1-0.3,0.1
				c-0.5,0.1-0.9,0.3-1.4,0.4c-0.2,0-0.6,0,0.2,0c-0.2,0-0.3,0-0.5,0c-0.3,0-0.5,0-0.8,0c-0.3,0-0.6,0-0.8-0.1c-0.2,0-0.7-0.1,0.1,0
				c-0.2,0-0.4-0.1-0.6-0.1c-0.6-0.1-1.2-0.3-1.8-0.5c-0.2-0.1-1.3-0.5-0.7-0.2c-0.3-0.1-0.7-0.3-1-0.5c-1.7-0.8-3.2-1.9-4.7-3
				c-1.7-1.3-3.6,0.5-3.8,2.2c-0.1,0.4-0.2,1.6-0.4,2.3c-0.2,1-0.5,2.1-0.7,3.1c-0.5,2-1.2,3.9-1.9,5.8c-1.5,3.9-3.6,7.8-6,11.3
				c-4.4,6.4-10.5,12.3-18.1,13.6c-1.5,0.3-4,0.2-5.6-0.2c-2.3-0.5-4.3-1.4-6.3-2.7c-1-0.6-2.2-0.4-3,0.4
				c-6.2,5.8-14.7,7.8-23.1,6.9c-7.9-0.9-16-4.8-21.3-11.1c-1.3-1.6-2.6-3.6-3.6-5.7c-0.9-2-1.7-4.6-2.1-7c-0.2-1.3-1.9-2.2-3.1-1.7
				c-0.4,0.1-0.8,0.3-1.2,0.4c-0.2,0-0.3,0.1-0.5,0.1c-0.6,0.2,0.5,0-0.1,0c-0.3,0-0.6,0-0.8,0c-0.4,0.1,0.1,0,0.2,0
				c-0.2-0.1-0.4-0.1-0.6-0.1c-0.3,0,0.1,0,0.2,0.1c-0.1,0-0.3-0.1-0.4-0.2c-0.1-0.4,0.3,0.3,0.1,0.1c-0.1-0.1-0.2-0.1-0.3-0.2
				c-0.1-0.1-0.2-0.2-0.3-0.3c0,0,0.3,0.5,0.1,0.2c-0.2-0.3-0.3-0.5-0.5-0.8c-0.3-0.6,0.1,0.4-0.1-0.3c-0.1-0.3-0.2-0.5-0.3-0.8
				c-0.2-0.7-0.4-1.3-0.5-2c-0.3-1.4-0.4-2.7-0.7-4.1c-0.4-2.7-0.9-5.6-2.7-7.8c-2.4-2.9-5.8-1.9-9.1-2.4c-7.8-1-13.5-5.9-16.8-12.8
				c-1.4-2.8-2.5-6.5-3.1-10c-0.2-0.9-0.2-1.5-0.3-1.9c-0.1-0.8-0.2-1.6-0.2-2.4C5,75.9,5,74,5.2,72.1C6.7,62,15,51.7,26,51.9
				c1.4,0,2.5-1.2,2.5-2.5c0.2-5.1,0.6-9.9,1.7-14.8c1-4.2,2.2-7.6,4.4-11.2c0.2-0.4,0.5-0.8,0.8-1.1c0.1-0.2,0.3-0.4,0.4-0.6
				c0.1-0.1,0.1-0.2,0.2-0.3c0.2-0.3-0.2,0.3,0,0c0.6-0.7,1.2-1.4,1.8-2.1c0.7-0.7,1.4-1.3,2.1-1.9c0.4-0.3-0.2,0.1,0.2-0.2
				c0.2-0.1,0.4-0.3,0.5-0.4c0.4-0.3,0.8-0.5,1.2-0.8c1.8-1.1,3.3-1.8,4.9-2.3c2-0.7,4.1-1.2,6.2-1.6c2.3-0.4,5.2-0.5,7.8-0.5
				c3.3,0,6.5,0.2,9.7,0.6C71.8,12.4,73,11,73,9.7C73,8.2,71.8,7.4,70.5,7.2z"/>
		</g>
	</g>
	<g>
		<path class="st1" d="M43.5,47.2c-5.2,11.9-4.5,30.6-4.8,40.7C39,91,41.2,94.9,44,96c2.3,1.2,4.4,1.4,7.3,1.4
			c6.3,0,12.2-3.4,14.9-9.1c1.5-3.1,2.4-6.5,3.3-9.6c0.9-4.3,2.5-11,3.2-17.9C63.7,54.4,54,49.1,43.5,47.2z"/>
		<path class="st2" d="M65.2,112.4c-1.6,0.2-2.7,1.7-2.4,3.3c0.4,1.9,1.2,4.2,2.9,6.3c3.9,4.9,9.7,5.7,12.8,5.8c1.2,0,2.3-0.5,3-1.4
			c4.9-6.3,12.1-11.2,20.1-15.3c1.2-0.6,0.7-2.5-0.7-2.3C89,110,77.1,111.2,65.2,112.4z"/>
		<path class="st0" d="M63.1,71.7c0.7,6.5-7.8,9.7-9.5,2.5c-1.2-3.5,1.5-7.5,5-7.8C60.8,67.4,63.6,68.9,63.1,71.7z"/>
	</g>
	<g>
		<path class="st1" d="M114.7,49.8c5.2,11.9,4.5,30.6,4.8,40.7c-0.2,3.1-2.5,6.9-5.3,8.1c-3,1.5-6.1,1.8-9,0.8
			c-1.3-0.4-2.7-0.6-4.1-0.9c-7.2-1.3-10.4-11-12.3-17.2c-0.9-4.3-2.5-11-3.2-17.9C94.5,57,104.2,51.6,114.7,49.8z"/>
		<path class="st0" d="M95.1,74.2c-0.7,6.5,7.8,9.7,9.5,2.5c1.2-3.5-1.5-7.5-5-7.8C97.4,69.9,94.6,71.4,95.1,74.2z"/>
	</g>
</g>
<g>
	<g>
		<path d="M62.9,38.5c0.7,0.8,1.4,1.6,2,2.5c-0.1-0.2-0.2-0.2,0,0c0.1,0.1,0.2,0.2,0.2,0.3c0.2,0.2,0.3,0.4,0.5,0.6
			c0.3,0.5,0.7,0.9,1,1.4c1.3,1.8,2.5,3.6,3.6,5.4c0.7,1.1,2.3,1.6,3.4,0.9c1.1-0.7,1.6-2.2,0.9-3.4c-2.4-3.9-5.1-7.6-8.1-11.2
			c-0.8-1-2.7-0.9-3.5,0C61.9,36.1,62,37.5,62.9,38.5L62.9,38.5z"/>
	</g>
</g>
<g>
	<g>
		<path d="M87.9,46.9c0.7-1,1.4-2,2.1-3c0.2-0.2,0.4-0.5,0.6-0.7c0.2-0.3-0.2,0.3,0,0c0.1-0.1,0.2-0.3,0.3-0.4
			c0.4-0.5,0.8-1,1.2-1.4c1.6-1.9,3.3-3.7,5-5.4c0.9-0.9,1-2.6,0-3.5c-1-0.9-2.5-1-3.5,0c-3.8,3.6-7.1,7.6-10,11.9
			c-0.7,1.1-0.3,2.8,0.9,3.4C85.8,48.5,87.2,48.1,87.9,46.9L87.9,46.9z"/>
	</g>
</g>

<animateTransform
            attributeName="transform"
            attributeType="XML"
            type="scale"
            values="1;0.8;1"
            begin="0s"
            dur="3s"
            repeatCount="indefinite"/>
</svg>
