<?xml version="1.0" encoding="utf-8"?>
<!-- Generator: Adobe Illustrator 27.7.0, SVG Export Plug-In . SVG Version: 6.00 Build 0)  -->
<svg version="1.1" id="Layer_1" xmlns="http://www.w3.org/2000/svg" xmlns:xlink="http://www.w3.org/1999/xlink" x="0px" y="0px"
	 viewBox="0 0 111.9 121.1" style="enable-background:new 0 0 111.9 121.1;" xml:space="preserve">
<style type="text/css">
	.st0{fill:#F5EC43;stroke:#000000;stroke-width:4.6017;stroke-miterlimit:10;}
</style>
<path class="st0" d="M32.4,43.6C35,34.8,25.8,11,39.8,2.4C56.8,0,66,28.7,74.5,31.5c13.4-4.8,41.9-16.8,31.9,12.9
	c-3.5,8.4-9.4,8.9-9.4,14.2c2,7,18.9,21.2,10.3,32.7c-9.6,8.1-27.4-5.8-33.7-5.6c-5.2,1.5-4.4,9.2-11.4,19.7
	c-10.6,17.9-25,20-27.3-6.5c-0.9-8.8,1.4-13.7-1.6-16c-7.1-0.8-26.2,4.6-30.9-7.5C0.1,62.5,29.9,50.2,32.4,43.6z"/>
</svg>
