<?xml version="1.0" encoding="utf-8"?>
<!-- Generator: Adobe Illustrator 27.7.0, SVG Export Plug-In . SVG Version: 6.00 Build 0)  -->
<svg version="1.1" id="Layer_1" xmlns="http://www.w3.org/2000/svg" xmlns:xlink="http://www.w3.org/1999/xlink" x="0px" y="0px"
	 viewBox="-450 -850  2000 2000" style="enable-background:new 0 0 922.2 393.6;" xml:space="preserve">
<style type="text/css">
	.st0{fill:#C77161;}
	.st1{stroke:#000000;stroke-width:4.206;stroke-miterlimit:10;}
	.st2{stroke:#000000;stroke-width:0.9921;stroke-miterlimit:10;}
</style>
<path id ="carPath" fill="none" d='M-1508,682 C-248,-738 536,390 1555,-356'/>
<g>
<g>
	<g>
		<path class="st0" d="M905.8,42c4.4,1.3,9.7-3.3,13.9-8.1c-5.1-5.7-8.1-13.2-8.4-20.9c-0.6,1.3-3.6-1.1-4.9-0.6
			c-22.8-21.1-55.6-4.4-77,11c-2.3,1.5-4.7,3.1-7.4,3.9c-3.8,1.1-5.8,4-9.7,3.8c-70.6,0.6-116,30.1-184.3,97
			c-13.7,15.4,11,44.1,16.4,58.3c7.7,1.2,18.1-5.1,17.7-7.2c-0.2-1.1-3.7-0.3-6.5-1.7c-9.8-5.1-14-40.5,5.6-52.3
			c24.8-13.5,49.8,11.2,50.7,30.2l146-84.1c-11.1-10-20.2-41.9,3.8-55.5c9.5-5.2,22.6-5.2,30.4,1.3C901.9,25.2,898.8,39.9,905.8,42z
			"/>
		<g>
		
			<path d="M905.2,44.4c6.5,1.6,12.4-4.3,16.3-8.7c0.9-1.1,0.9-2.5,0-3.5c-4.7-5.3-7.4-12.1-7.6-19.1c-0.1-2.5-3.3-3.4-4.7-1.3
				c0.6-0.3,1.2-0.5,1.8-0.8c-0.1,0-0.2,0-0.3-0.1c-0.1-0.1-0.4-0.1-0.6-0.2c-0.5-0.2-0.9-0.3-1.3-0.5c-1-0.3-2-0.5-3-0.2
				c0.8,0.2,1.6,0.4,2.4,0.6c-5-4.6-11-8-17.7-9.6c-6.3-1.5-12.7-1.4-19.1-0.3c-13.2,2.2-25.5,8.6-36.6,15.8c-2.7,1.8-5.3,3.7-8,5.5
				c-1.6,1-3.2,2-5,2.6c-1.7,0.6-3.3,1.3-4.9,2.2c-1.1,0.7-2.3,1.5-3.7,1.6c-1.5,0.2-3.2,0-4.8,0.1c-3.2,0.1-6.3,0.2-9.5,0.4
				c-12.1,0.8-24.2,2.5-36,5.5c-23.3,5.9-45,16.7-64.9,30.2c-24.7,16.8-46.9,37.2-68.4,58c-2.3,2.3-4.8,4.4-6.3,7.3
				c-1.2,2.2-1.8,4.6-2.1,7.1c-0.6,5.2,0.8,10.5,2.6,15.3c3.9,10.4,10.1,19.6,15.3,29.3c0.5,0.9,1,1.9,1.4,2.8
				c0.5,1.1,0.7,1.5,1.1,2.4c0.3,0.7,0.9,1.6,1.7,1.7c5.9,0.8,12.3-1.1,17.2-4.6c1.6-1.1,3.7-2.7,3.7-4.9c0-3.8-4.6-3-7-3.7
				c-0.4-0.1-0.7-0.3-1.1-0.5c-0.1-0.1-0.3-0.2-0.4-0.3c-0.5-0.3,0.4,0.4,0,0c-0.5-0.5-1-0.9-1.4-1.5c0.4,0.5-0.3-0.5-0.4-0.6
				c-0.2-0.3-0.4-0.6-0.6-0.9c-0.2-0.4-0.4-0.8-0.6-1.2c-0.1-0.2-0.2-0.4-0.3-0.6c0-0.1-0.3-0.7-0.1-0.3c-1.6-3.9-2.4-8.1-2.6-12.2
				c-0.5-9,1.3-19.2,7.6-26c7.9-8.6,21.2-9.5,31.3-4.5c10.5,5.2,19.9,16.5,20.6,28.4c0.1,1.9,2,3.1,3.8,2.2
				c4.9-2.8,9.7-5.6,14.6-8.4c11.7-6.7,23.3-13.4,35-20.1c14-8.1,28.1-16.2,42.1-24.3c12.1-7,24.3-14,36.4-21
				c5.9-3.4,11.9-6.6,17.7-10.2c0.1-0.1,0.2-0.1,0.3-0.1c1.3-0.8,1.7-2.8,0.5-3.9c-2.3-2.1-3.7-4-5.2-6.8c-1.7-3-2.9-5.9-3.8-9.2
				c-2-7-2.3-14.6,0.2-21.5c2.8-7.9,9.6-13.9,17.6-16.3c8.8-2.6,20.2-1.3,25.5,7c2.5,3.9,3.4,8.4,4.6,12.8
				C899.5,39.3,901.1,43.1,905.2,44.4c3.1,1,4.4-3.9,1.3-4.8c-0.5-0.2-0.7-0.2-1-0.6c-0.5-0.5-0.6-0.7-1.1-1.6
				c-0.6-1.2-1.2-3.3-1.6-4.9c-1.2-4.3-2.4-8.7-4.9-12.5c-6.2-9.4-18.3-11.8-28.8-9.5c-9.4,2.1-17.9,8.5-21.9,17.3
				c-3.5,7.7-3.8,16.3-2.1,24.5c1.6,7.6,5.2,15.6,11,20.9c0.2-1.3,0.3-2.6,0.5-3.9c-4.9,2.8-9.7,5.6-14.6,8.4
				c-11.7,6.7-23.3,13.4-35,20.1c-14,8.1-28.1,16.2-42.1,24.3c-12.1,7-24.3,14-36.4,21c-4,2.3-8,4.6-12.1,6.9
				c-1.9,1.1-3.9,2-5.7,3.3c-0.1,0.1-0.2,0.1-0.3,0.1c1.3,0.7,2.5,1.4,3.8,2.2c-0.6-10.2-6.4-19.8-13.9-26.5
				c-8.4-7.5-19.6-11.6-30.9-9.4c-5.4,1.1-10.5,3.5-14.5,7.3c-3.3,3.2-5.6,7.1-7.3,11.3c-3.3,8.2-3.7,17.6-2,26.3
				c0.7,3.8,2,7.8,4.2,11.1c1,1.4,2.1,2.8,3.6,3.8c1.1,0.7,2.3,1.2,3.6,1.5c0.9,0.2,1.8,0.3,2.7,0.4c0.2,0,0.5,0.1,0.7,0.1
				c0.3,0,0,0.1-0.2-0.2c-0.2-0.4-0.4-0.7-0.6-1.1c-0.2-0.5,0.1-0.8,0.2-1.1c-0.1,0.1-0.4,0.5,0,0.1c-0.2,0.3-0.9,0.9-0.9,0.9
				c-1.2,1-2.6,1.7-4,2.3c-2.9,1.4-6.6,2.5-9.8,2c0.6,0.6,1.2,1.2,1.7,1.7c-1.7-4.5-4.1-8.6-6.5-12.7c-2.9-5-5.8-9.9-8.3-15.1
				c-4-8.1-8.7-19.5-2.7-27.3c0.9-1.2,2.3-2.4,3.4-3.5c1.6-1.6,3.2-3.1,4.8-4.7c3.1-3,6.3-6,9.4-9c5.7-5.3,11.5-10.6,17.4-15.8
				c10.6-9.3,21.6-18.2,33.2-26.3c19.8-13.9,41.4-25.2,64.8-31.4c11.5-3.1,23.3-4.9,35.2-5.8c3.3-0.2,6.5-0.4,9.8-0.5
				c3.3-0.1,6.7,0.3,9.8-1.1c1.3-0.6,2.5-1.4,3.8-2.1c1.7-0.9,3.6-1.3,5.3-2.2c3.3-1.6,6.1-3.9,9.1-6c10.9-7.3,22.9-13.8,35.8-16.4
				c6-1.2,12.3-1.4,18.2,0c3.1,0.7,6,1.9,8.7,3.4c1.4,0.8,2.7,1.6,4,2.6c0.7,0.5,1.3,1,1.9,1.6c1.1,0.9,1.7,1.3,3.1,1.3
				c-0.8,0,0.5,0.3,0.8,0.4c0.5,0.2,1,0.4,1.4,0.5c1.6,0.4,3.2,0.1,4.1-1.4c-1.6-0.4-3.1-0.8-4.7-1.3c0.3,8.4,3.5,16.3,9.1,22.6
				c0-1.2,0-2.4,0-3.5c-1.8,2-3.7,4.1-6,5.6c-1.5,1.1-3.5,2.3-5.5,1.8C903.4,38.8,902,43.6,905.2,44.4z"/>
		</g>
	</g>
	<g>
		<path d="M808,43.3c-28.5,14.6-62.8,33.4-92,46.7c-11.4,5.2-22.9,10.3-34.9,13.8c10.5-16.5,28.1-26.9,45-36.8
			c12.1-7,24.2-14,37.3-18.8C768.2,46.5,793.2,41.9,808,43.3z"/>
	</g>
	<g>
		<path d="M889.7,55.3c-8.2,8.8-24.3,8-32.1-1.3c-11.9-18.3,12.3-43.3,29.4-29C895.9,31.8,896.1,47.1,889.7,55.3z"/>
		<path d="M874.6,63.6c-0.2,0-0.5,0-0.7,0c-7.1-0.2-13.6-3.2-17.8-8.2l-0.2-0.2c-7-10.8-2.6-23.5,5.4-30.5c8.4-7.5,19.1-8,27.2-1.2
			c4.1,3.1,6.9,8.2,7.6,14.3c0.9,6.8-0.9,14.1-4.7,18.9l-0.1,0.1C887.2,61.1,881.1,63.6,874.6,63.6z M859.3,52.8
			c3.4,4,8.8,6.5,14.6,6.6c5.6,0.2,10.8-1.8,14.2-5.4c3.1-4,4.5-10,3.8-15.7c-0.6-4.9-2.8-9-6.1-11.5c-7.8-6.5-16.4-3.7-21.8,1.1
			C857.4,33.6,853.7,44,859.3,52.8z"/>
	</g>
	<path class="st1" d="M700.6,160.5c-3.6,13.5-20.4,21.6-33.5,16.4c-22.2-12.2-11.4-51,14-45.8C693.9,133.1,702.5,148.6,700.6,160.5z
		"/>
</g>
<g>
	<path class="st2" d="M34.7,322.1c0.3,1.8-0.5,3.3-0.6,5.2c-0.3,5.2,5.8,15.3,9,20.1c1.2-2.5,2.9-5.7,4.4-8.3
		c1.2-2.2,2.3-3.9,2.9-4.2c1.8-0.7,3.8-0.7,5.2,0c1.6,0.9,2.3,2.8,0.8,5.8c-2.6,5.3-4.7,9.3-7,14.8c5.6,7.7,19.6,22.1,26.7,26
		c2.1,1.2,2.8,1.3,3.6,1.7c2.6,1.5,4,3.5,2,6.9c-2,3.7-6.1,3.2-8,2.1c-3.2-1.8-20.5-16.2-29.3-26.5c-0.8,1.7-1.5,3.6-2.2,5
		c-1.2,2.2-3,3.8-6.3,2c-4.6-2.6,0.9-12.2,2.2-15.1c-3.9-5.8-8.6-14.1-11.3-20.7c-5.6,10.8-10.4,21.8-15,33.1c-0.8,2-1.3,3-1.6,3.6
		c-1.4,2.5-5.1,3.3-7.8,1.8c-1-0.6-1.9-1.6-1.8-3.1c0.2-4.7,9.7-24.5,17.8-39.1c4.9-8.8,9.3-15.6,10.7-16c0,0,1.5-0.1,2.8,0.6
		C33.1,318.6,34.3,319.5,34.7,322.1z"/>
	<path class="st2" d="M106.5,284.3c-2.4,2.1-4.5,4-6.6,6c-1.2,1.2-2.3,2.5-3.4,3.8c6.1,8,19.2,24.7,20.5,25.9c2,0.6,3.8,1.7,5.1,3
		c2.1,2,2.8,4.6,0.5,7c-2.7,2.7-7.4,4.2-10.6,1c-1.1-1.1-1.9-2.4-2.5-3.5c-0.4-0.9-9.9-12.9-19.4-25.3
		c-8.2,10.9-13.8,20.6-17.4,24.3c-2,2.1-5.9,2.9-8.3,0.6c-0.7-0.7-1.1-1.6-1-2.8c1.3-16.6-0.8-22-6.8-39c-1.1-3.3-3.6-9.6-3.9-12.9
		c-0.1-1.3,0.3-2.4,1-3.1c1.9-2,6.4-1.6,8.9,0.8c0.8,0.8,1.5,1.8,1.6,3c2.4,13.5,8,22.7,8.4,36.8c4.2-5.8,7-10.4,11.3-15.5
		C76.4,284.3,70.2,276,70.2,276c-2-2.6-3.6-6.2-1.5-8.4c2.2-2.2,6.9-1.9,8.8,0.1c0.8,0.8,2.8,3.7,3.9,5.6c2.9,4.9,6.4,9.3,9.8,13.8
		c2.9-2.8,6.1-5.6,9.5-7.8c2.6-1.8,4.7-1.5,5.8-0.4C107.9,280.3,108,282.7,106.5,284.3z"/>
	<path class="st2" d="M163.2,271.2c-0.5,0.3-1.1,0.5-1.4,0.7c-2.1,1.3-3.6,2.8-4.8,4c1,2.3,3.6,7.8,5.7,11.1c0.6,1,1.2,1.8,1.6,2.3
		c0.2,0.2,0.4,0.4,0.6,0.7c0.6,1,0.2,1.9-0.5,2.3c-1,0.6-2.7,0.5-3.8-1.3c-1-1.6-2.4-4-4.3-8c-1.1-2.3-1.5-3.3-2-4.4
		c-1.6,1.7-1.7,2.3-2.7,4.4c-0.1,0.3-0.3,0.6-0.6,0.8c-0.8,0.5-2.3,0.4-2.9-0.6c-0.3-0.5-0.4-1.1-0.1-1.7c0.6-1.6,3.6-5.2,4.8-6.4
		c-0.4-1-2.4-5.8-3.4-7.5c-0.2-0.4-0.6-0.9-0.9-1.4c-0.6-1-1-2.1,0.2-2.8c1.3-0.8,2.7,0.5,3.8,2.4c1.4,2.3,2.6,5.6,3.1,6.7
		c1.3-1.1,2.4-1.9,3.7-2.7c0.5-0.3,1-0.6,1.7-0.9c1.5-0.7,2.7-0.5,3.1,0.2C164.3,269.7,164.1,270.6,163.2,271.2z"/>
	<path class="st2" d="M177.9,282.7c-0.4,0.5-0.8,0.8-1.3,1.1c-4.9,2.7-11.1-8.3-13.1-11.9l-0.3-0.5c-0.7-1.2-0.3-2.2,0.5-2.6
		c0.9-0.5,2.3-0.3,3,1c0.3,0.5,0.5,1.1,0.9,1.7c2.1,3.8,5.7,9.5,7,8.8c0.1-0.1,0.2-0.2,0.3-0.5c0.7-2.6-2.9-10-3.4-11
		c-0.7-1.4-0.3-2.4,0.5-2.8c0.9-0.5,2.4-0.2,3.1,1C176.1,268.6,179.9,280.3,177.9,282.7z"/>
	<path class="st2" d="M192.7,258.2c-0.6,0.3-1.1,0.1-1.7,0.4c-0.2,0.1-0.4,0.3-0.6,0.6c-1.6,2.4-2.9,6.9-3.6,12.3
		c-0.4,2.6,1.6,5.2,1.3,6.4c-0.1,0.7-0.5,1.1-1,1.3c-1.1,0.5-2.4,0.3-3-0.9c-0.2-0.4-0.4-0.9-0.5-1.4c-0.6-2.2-1.5-4.8-2.6-7.2
		c-1-2.1-2.3-4.1-3.8-5.6c-0.1-0.1-0.2-0.2-0.3-0.4c-0.4-0.8,0.2-1.9,1.2-2.3c2.1-1,3.6,1.6,4.5,3.5c0.6,1.3,1,2,1.5,2.9
		c0.5-2.4,2.1-8.2,3.7-10.4c0.6-0.8,1.3-1.5,2.2-2c1.3-0.6,3-1,3.8,0.6C194.1,256.8,193.6,257.8,192.7,258.2z"/>
	<path class="st2" d="M214,259.2c-0.4,0.6-0.9,1.5-1.2,2.2c-1.6,2.8-4.6,7.6-8,9.1c-3.7,1.6-8.5-1.5-10-5.2
		c-2.3-5.5,2.2-12.1,7.6-14.4c1.5-0.6,3.1-1,4.5-0.8c0.3,0.1,0.5,0.1,0.6,0.3c0.5,1.2-0.6,5.6-3.4,8.5c-2.9,3-4.7,3.6-6.1,4.5
		l0.2,0.5c0.8,2,3.4,4.2,5.7,3.3c2.8-1.2,6.5-8.1,6.8-8.9c0.1-0.9,0.2-2.1,1.1-2.5c0.8-0.3,2.1,0.1,2.5,1
		C214.7,257.5,214.4,258.5,214,259.2z M203.5,254c0,0,0-0.1-0.2,0c-0.5,0.2-1.7,0.8-3.1,2.3c-1.3,1.4-2.1,3.3-2.1,3.3
		s2.3-1.5,3.4-2.6c1.2-1.3,1.7-2.3,2-2.8C203.4,254.1,203.5,254.1,203.5,254z"/>
	<path class="st2" d="M228.4,244.2c-0.6,0.2-1.1,0-1.7,0.2c-0.2,0.1-0.4,0.3-0.7,0.5c-1.9,2.2-3.6,6.6-4.8,11.9
		c-0.6,2.5,1,5.4,0.7,6.5c-0.2,0.6-0.6,1-1.1,1.2c-1.2,0.4-2.4,0.1-2.9-1.2c-0.1-0.4-0.3-0.9-0.4-1.5c-0.4-2.3-1-5-1.9-7.4
		c-0.8-2.2-1.9-4.3-3.2-5.9c-0.1-0.1-0.2-0.3-0.3-0.4c-0.3-0.8,0.4-1.8,1.4-2.2c2.2-0.8,3.4,2,4.1,4c0.5,1.4,0.8,2.1,1.2,3.1
		c0.8-2.3,2.9-7.9,4.7-10c0.6-0.8,1.4-1.4,2.4-1.7c1.3-0.5,3.1-0.7,3.7,1C229.9,243,229.3,243.9,228.4,244.2z"/>
	<path class="st2" d="M268.3,243.1c0.3,1.2,1.1,1.9,1.3,2.7c0.3,1.1-0.3,2.3-1.3,2.6c-1.9,0.5-2.7-2.2-3.1-3.7c-0.7-2.3-1-5.2-2-8.7
		l-0.3-0.9c-0.3-0.9-0.5-2.1-0.5-3.1c-0.7,0.2-1.4,0.2-1.7,0.3c-2.4,0.7-4.2,1.7-5.7,2.5c0.3,2.5,1.3,8.5,2.4,12.2
		c0.3,1.1,0.6,2.1,0.9,2.6c0.2,0.3,0.3,0.5,0.4,0.8c0.3,1.1-0.3,1.9-1.1,2.1c-1.1,0.3-2.7-0.3-3.3-2.3c-0.5-1.9-1.2-4.5-1.9-8.8
		c-0.4-2.5-0.5-3.5-0.7-4.8c-2.1,1.2-2.3,1.8-3.8,3.5c-0.2,0.2-0.5,0.5-0.8,0.6c-1,0.3-2.3-0.3-2.6-1.3c-0.2-0.6,0-1.2,0.4-1.7
		c1-1.4,4.9-4,6.4-4.9c-0.1-1-0.7-6.3-1.2-8.1c-0.1-0.4-0.3-1-0.5-1.5c-0.3-1.1-0.4-2.3,1-2.7c1.5-0.4,2.4,1.2,3,3.4
		c0.7,2.6,0.9,6.1,1.1,7.3c1.5-0.7,2.8-1.2,4.3-1.6c0.6-0.2,1.2-0.3,1.8-0.4c1.6-0.2,2.6,0.3,2.9,1c1.1-0.2,2.3,0.5,2.6,1.8
		C266.6,233.2,267.7,241,268.3,243.1z M262.6,219.6c-0.1,1.6-0.6,2.1-0.3,3.8c0.2,0.9-0.4,1.8-1.2,2c-0.9,0.3-1.6-0.5-1.8-1.4
		c-0.4-1.4-0.1-3.6,0-4.8c0.2-1.3,0.7-1.9,1.3-2.1c0.8-0.2,1.7,0.4,1.9,1.1C262.6,218.6,262.6,219,262.6,219.6z"/>
	<path class="st2" d="M274.8,217.9c1,7.8,1.6,16,3.5,23.7c0.3,1.1,0.8,2.7,1,3.6c0.4,1.5,0.2,3.4-1,3.7c-0.4,0.1-0.9,0-1.6-0.3
		c-0.4-0.2-0.8-1.4-1.2-3.2c-1.5-5.9-3-18.1-3.4-20.3c-0.5-2.8-0.9-5.1-1.2-6.8c-0.3-2-0.4-3.2-0.2-3.5c0.2-0.4,0.7-0.9,1.3-1
		c1.3-0.3,2.1,0.6,2.5,2C274.6,216.4,274.7,217.1,274.8,217.9z"/>
	<path class="st2" d="M322.9,235.6c-0.6,0.1-1.2,0-1.7-0.6c-0.5-0.5-0.8-1.8-1.1-3.3c-0.5-2.5-0.9-5.7-1.3-8
		c-0.3-1.5-0.8-3.2-1.3-3.1c-1.1,0.2-3.3,14.8-3.4,16.3c-0.1,1.8-0.5,2.6-1.2,2.7c-2.2,0.4-2.7-2.2-2.9-3.1
		c-0.5-2.4-2.1-10.3-2.9-12.2c-0.1-0.3-0.2-0.4-0.4-0.4c-0.4,0.1-0.6,1.7-1.1,3.8c-0.6,2.5-1.4,7.4-0.8,10.5
		c0.1,0.4,0.3,0.8,0.4,1.4c0.2,1-0.9,1.6-1.8,1.8c-1.7,0.3-2.1-0.4-2.4-2.1c-0.6-2.8-0.8-7.9-1.4-11.1c-0.2-0.8-0.4-1.6-0.6-2.5
		c-0.2-1.2,0.2-2.2,1.4-2.5c1-0.2,2.2,0.3,2.5,1.4c0.7-2.1,2-5.5,3.2-5.7c1-0.2,2.4,0.6,3,1.3c0.6,0.7,1.5,3.2,2.7,8.2
		c1.1-3.9,3-11.2,5.6-11.7c1.4-0.3,3.4,1.4,3.8,2.3c0.5,1.1,1.3,4.2,1.8,7.1c0.4,1.8,0.6,3.6,1,5.4c0.1,0.6,0.7,1.2,0.8,1.9
		C324.9,234.7,323.9,235.4,322.9,235.6z"/>
	<path class="st2" d="M339,233.3c-0.2,0.3-0.5,0.5-0.8,0.6c-0.7,0.1-1.5-0.2-1.8-0.8c-1,0.8-2.9,2.3-4.8,2.6c-2.2,0.4-4.1-1-4.5-3.2
		c-0.6-3.3,1.9-7.8,4.9-8.3c1.3-0.2,2.7,0.3,4,2c0-0.6,0-1.3-0.2-2c-0.3-1.8-1.8-5.9-4.5-5.4c-1.2,0.2-2.3,1.2-2.3,1.5
		c0,0.5-0.4,0.8-0.9,0.9c-0.9,0.2-1.9-0.3-2.1-1.3c-0.4-2,2.4-3.9,5-4.4c4.6-0.8,7.5,3.9,8.2,8C340.1,227.8,339.3,232.4,339,233.3z
		 M335.7,209.1c-1.3,2.1-2.6,3.3-4.2,3.6c-1.9,0.3-3.2-0.6-3.6-2.6c-0.5-2.9,0.8-6.5,4.1-7.1c1.8-0.3,4.3,0.1,4.7,2.3
		C336.9,206.3,336.7,207.6,335.7,209.1z M332.5,227.6c-1.4,0.4-2.6,2.7-2.3,4.2c0.1,0.6,0.5,0.8,0.9,0.7c1.2-0.2,3-1.9,3.6-2.6
		C334.3,229.1,333.2,227.4,332.5,227.6z M333,206.4c-0.6,0.1-1.3,0.4-1.7,0.9c-0.4,0.5-0.6,1.3-0.5,1.9c0,0.1,0.1,0.3,0.3,0.2
		c0.7-0.1,2.8-2.3,2.7-2.8C333.7,206.3,333.3,206.3,333,206.4z"/>
	<path class="st2" d="M357.1,232.8c-1.2,0.2-2.8-0.6-3-2c0-0.3,0-0.5,0-0.8c-0.3-1.9-1.1-3.9-1.6-6.7c-0.2-1.4-0.4-2.9-0.7-4.3
		c-0.2-1.3-0.5-2.5-0.6-2.5c-2.6,4.7-3.1,15.6-4.1,16.2c-0.5,0.4-1,0.5-1.3,0.6c-1.4,0.2-1.9-1-2.1-2.4c-0.1-0.4-0.2-1.2-0.2-1.6
		c-0.3-5.4-1.3-9.4-1.5-14.3c0-1.2,0.5-1.6,1.3-1.8c0.8-0.1,1.7,0.2,2.1,0.6c0.3,0.2,0.4,0.7,0.5,1.2c0.2,1.4,0.1,3.5,0.4,5.3
		c1.2-3.2,2.9-8.3,4.9-8.7c2.4-0.4,3.8,4.1,4.9,10.9c0.8,4.7,1,5.9,1.1,6.2c0.5,0.6,1,1.4,1.2,2.2
		C358.7,231.9,358.1,232.6,357.1,232.8z"/>
	<path class="st2" d="M378.9,220.4c-0.6,0.5-1.2,1.3-1.7,1.8c-2.2,2.3-6.2,6.3-9.9,6.9c-4,0.6-7.8-3.5-8.5-7.5
		c-0.9-5.9,5-11.3,10.8-12.2c1.6-0.3,3.3-0.2,4.6,0.3c0.3,0.1,0.5,0.2,0.5,0.4c0.2,1.3-1.9,5.3-5.3,7.4c-3.5,2.2-5.4,2.4-7,2.9
		l0.1,0.6c0.3,2.1,2.3,4.9,4.8,4.5c3-0.5,8.3-6.3,8.7-7c0.3-0.9,0.7-2,1.7-2.1c0.9-0.1,2,0.6,2.2,1.6
		C380,218.9,379.5,219.9,378.9,220.4z M369.9,212.9c0,0,0-0.1-0.2-0.1c-0.5,0.1-1.9,0.4-3.5,1.5c-1.6,1-2.8,2.7-2.8,2.7
		s2.6-0.9,3.9-1.7c1.4-1,2.3-1.9,2.6-2.3C369.9,213,369.9,212.9,369.9,212.9z"/>
	<path class="st2" d="M395.5,226.8c-1.2,0.2-2.8-0.7-3-2.1c0-0.3,0-0.5,0-0.8c-0.3-1.9-1-3.9-1.5-6.7c-0.2-1.4-0.4-2.9-0.6-4.3
		c-0.2-1.3-0.4-2.5-0.6-2.5c-2.6,4.6-3.3,15.5-4.3,16.1c-0.5,0.4-1,0.5-1.3,0.6c-1.4,0.2-1.8-1-2.1-2.4c-0.1-0.4-0.2-1.2-0.2-1.6
		c-0.3-5.4-1.2-9.4-1.3-14.3c0-1.2,0.6-1.6,1.3-1.7c0.8-0.1,1.7,0.2,2.1,0.6c0.3,0.2,0.4,0.7,0.5,1.2c0.2,1.4,0.1,3.5,0.4,5.3
		c1.3-3.2,3.1-8.3,5.1-8.6c2.4-0.4,3.7,4.2,4.8,10.9c0.7,4.7,0.9,6,1.1,6.3c0.5,0.6,1,1.4,1.2,2.2
		C397.1,225.9,396.5,226.6,395.5,226.8z"/>
	<path class="st2" d="M421.1,220.8c-3.3,0.5-5.8-3.1-6.3-6.2c-0.2-1.2-0.2-2.5,0.2-3.8c1.5-5.8,3.7-8.5,6.3-9.1l0.2,0
		c3.9-0.6,7.1,2.9,7.7,6.9C430.2,214.8,425,220.1,421.1,220.8z M422.9,205.1c-2.8,0.4-5,6.2-4.6,8.8c0.2,1.1,1.1,3.5,2.8,3.2
		c1.6-0.2,3.7-2.5,4.2-4.2c0.5-1.5,0.7-2.9,0.5-4.3C425.6,207.5,424.6,204.9,422.9,205.1z"/>
	<path class="st2" d="M460.7,218.5c-0.9,0.2-1.9,0-2.5-0.9c-3.3,0.5-5.4,1.1-7.5,1.7c0.5,1,0.8,2.1,1,3.2c1.3,7.9-3.4,19-11.1,20.3
		c-4.3,0.7-9.6-1.8-10.4-6.8c-0.4-2.3,0.1-4.9,1.8-7.6c4-6.3,7.7-8.4,13.2-10.7c-1.7-1.4-3.8-1.7-5.8-1.4c-1.4,0.2-2.7,0.7-3.9,1.4
		c-0.7,0.4-1.4,1-2.2,1.1c-0.8,0.1-2.1-0.4-2.3-1.4c-0.1-0.8,0.5-1.8,1.4-2.3c-0.3-0.6-0.5-1.2-0.6-1.8c-0.5-3.1,1.6-5.8,3.2-8.5
		c-0.8-0.5-1.1-1-1.2-1.5c-0.1-0.8,0.5-1.5,1.4-1.7c0.7-0.1,1.2,0.4,2,0.3c1-0.2,2.8-0.8,4.8-1.4c1-0.3,3.9-1.3,5.7-1.5
		c0.9-0.2,2.6,0,2.8,1.2c0.1,0.7-0.5,1.5-2,1.8c-0.2,0-0.5,0-0.8,0.1c-1.6,0.3-3,0.9-4.5,1.4c1.3,1,2,2.1,2.2,3.2
		c0.3,2-0.8,4.2-2.6,6.2c2.4,0.6,4,1.7,5.7,3.4c1.2-0.3,3.8-1,6.4-1.5c1.5-0.3,7.7-1.2,8.1,1.3C463.4,217.3,462.1,218.3,460.7,218.5
		z M447.3,220.6c-1.9,0.7-8.5,3.5-12,9.6c-1.2,2.2-1.7,3.9-1.4,5.3c0.4,2.6,3.7,4.4,6.3,3.9c5.2-0.9,9.2-9.6,8.1-16
		C448.1,222.4,447.8,221.5,447.3,220.6z M439.3,205.2c-1.2,1.5-2,2.8-2.6,3.9c-0.6,1.2-1.1,2.5-0.9,3.8c0,0.3,0.1,0.6,0.2,0.9
		c2.1-0.9,6.5-3.7,6.1-6.2C441.7,205.7,439.9,205.3,439.3,205.2z"/>
	<path class="st2" d="M493.8,202.4c0.2,1.2,0.9,1.9,1.1,2.8c0.2,1.1-0.5,2.3-1.5,2.5c-1.9,0.4-2.5-2.4-2.8-3.9
		c-0.5-2.4-0.6-5.2-1.3-8.8l-0.2-0.9c-0.2-0.9-0.4-2.1-0.2-3.1c-0.8,0.1-1.4,0.1-1.7,0.2c-2.4,0.5-4.3,1.3-5.9,2
		c0.1,2.5,0.6,8.6,1.4,12.4c0.2,1.1,0.5,2.1,0.7,2.7c0.1,0.3,0.2,0.5,0.3,0.8c0.2,1.1-0.4,1.8-1.3,2c-1.1,0.2-2.7-0.5-3.1-2.5
		c-0.4-1.9-0.9-4.6-1.2-9c-0.2-2.5-0.2-3.6-0.3-4.9c-2.1,1-2.4,1.6-4.1,3.2c-0.2,0.2-0.5,0.5-0.9,0.5c-1,0.2-2.3-0.5-2.5-1.5
		c-0.1-0.6,0.1-1.2,0.5-1.7c1.1-1.3,5.3-3.6,6.8-4.3c0-1.1-0.2-6.3-0.6-8.2c-0.1-0.4-0.2-1-0.3-1.6c-0.2-1.1-0.2-2.3,1.2-2.6
		c1.5-0.3,2.3,1.4,2.8,3.6c0.5,2.7,0.4,6.1,0.5,7.4c1.6-0.6,2.9-1,4.4-1.3c0.6-0.1,1.2-0.2,1.9-0.3c1.6-0.1,2.6,0.5,2.8,1.2
		c1.1-0.2,2.2,0.7,2.4,2C492.9,192.4,493.4,200.2,493.8,202.4z M490,178.5c-0.2,1.6-0.7,2.1-0.6,3.7c0.1,0.9-0.6,1.7-1.3,1.9
		c-0.9,0.2-1.5-0.6-1.7-1.5c-0.3-1.5,0.2-3.6,0.4-4.8c0.3-1.3,0.9-1.9,1.5-2c0.8-0.2,1.7,0.5,1.8,1.3
		C490.1,177.5,490.1,177.9,490,178.5z"/>
	<path class="st2" d="M502.4,177.3c0.7,7.8,0.9,16.1,2.5,23.8c0.2,1.1,0.7,2.8,0.8,3.7c0.3,1.5,0,3.4-1.2,3.6
		c-0.4,0.1-0.9,0-1.6-0.3c-0.4-0.2-0.7-1.4-1.1-3.2c-1.2-5.9-2.2-18.2-2.5-20.5c-0.3-2.8-0.7-5.1-0.9-6.8c-0.2-2-0.2-3.2,0-3.5
		c0.2-0.4,0.7-0.8,1.3-1c1.3-0.3,2.1,0.7,2.4,2.1C502.2,175.7,502.3,176.4,502.4,177.3z"/>
	<path class="st2" d="M518.4,200.8c-0.5,0.7-1.4,1.8-1.8,2.6c-0.3,0.7-0.8,1-1.2,1.1c-0.9,0.2-1.9-0.4-2.2-1.5
		c-0.5,0-1.2-0.1-1.6-0.6c-0.1-0.1-0.4-1.2-0.7-2.8c-0.6-2.6-1.3-6.8-1.6-9.9c-0.5-0.3-0.8-0.7-0.9-1.2c-0.2-0.7,0.2-1.6,0.9-2.2
		c0-1.2,0.1-5.6-0.5-8.7c-0.1-0.6-0.6-1.1-0.8-1.9c-0.2-1.1,0.3-1.9,1-2c1.1-0.2,2.8,0.7,3.4,3.5c0.5,2.6,0.2,5.2,0.3,7.8
		c2.1-0.4,7.7-1,10.5,2.8c0.3,0.4,0.4,0.7,0.5,1.2C524.3,192.4,520.2,198.2,518.4,200.8z M513.5,188.3l-0.8,0.2c0,2.5,0.3,5,0.8,7.5
		c0.3,1.4,0.7,2.8,1.1,4.2c1.7-2.1,5.8-7.5,5.3-10.2C519.5,187.7,515.3,188,513.5,188.3z"/>
	<path class="st2" d="M538.6,197.9c-0.2,0.3-0.4,0.5-0.8,0.6c-0.7,0.1-1.5-0.1-1.9-0.7c-0.9,0.9-2.8,2.4-4.7,2.8
		c-2.2,0.5-4.1-0.8-4.6-3c-0.8-3.3,1.5-7.9,4.5-8.5c1.3-0.3,2.7,0.2,4.1,1.8c0-0.6-0.1-1.3-0.3-2c-0.4-1.8-2.1-5.8-4.7-5.2
		c-1.2,0.3-2.2,1.3-2.2,1.6c0.1,0.5-0.3,0.9-0.8,1c-0.9,0.2-1.9-0.2-2.2-1.2c-0.4-2,2.2-4.1,4.8-4.6c4.6-1,7.6,3.5,8.6,7.7
		C539.4,192.4,538.9,197.1,538.6,197.9z M531.9,192.5c-1.4,0.4-2.4,2.9-2.1,4.3c0.1,0.6,0.5,0.8,1,0.7c1.1-0.3,2.9-2,3.5-2.8
		C533.8,193.9,532.6,192.4,531.9,192.5z"/>
	<path class="st2" d="M569.1,189.4c-0.4,0.2-0.8,0.7-1.5,1.1c-1.1,0.7-2.3,1.2-3.5,1.5c-5.6,1.4-12.4-1.1-17.1-3.3
		c0.1,1.3,0.4,2.7,0.7,4.1c0.2,1,0.5,1.9,1,2.8c0.3,0.6,0.6,1.1,0.7,1.7c0.2,1-0.1,1.8-1.8,2.3c-1.3,0.3-2.5-2.4-3.4-6.2
		c-2.2-8.9-3.1-24.4-1.6-25.6c0.3-0.2,0.6-0.3,0.8-0.4c1.2-0.3,2.3,0.6,2.5,1.7c0.1,0.2,0.1,0.4-0.1,1.8c-0.4,2.9-0.1,7.4,0.2,10.4
		c2.7-1.6,12.2-7.2,14.2-7.7c0.8-0.2,1.6,0,1.9,1c0.2,0.6,0,1.3-0.4,1.8c-0.4,0.5-4,2.1-4.7,2.5c-2.4,1.2-5.7,3.1-9.6,6
		c1.5,0.9,5.2,2.7,10.8,3.8c2.4,0.4,4.2,0.3,5.5,0c2.4-0.6,3.3-2,3.3-2.1c0.2-0.8,0.7-1.2,1.3-1.3c1-0.2,2.3,0.4,2.5,1.4
		C570.9,187.4,570.6,188.4,569.1,189.4z"/>
	<path class="st2" d="M586.8,179.2c-0.5,0.5-1.1,1.4-1.5,2c-2,2.5-5.5,6.9-9.2,7.9c-3.9,1.1-8.2-2.7-9.2-6.5
		c-1.6-5.8,3.8-11.7,9.5-13.3c1.6-0.4,3.3-0.5,4.6-0.2c0.3,0.1,0.5,0.2,0.6,0.4c0.4,1.3-1.4,5.5-4.5,7.9c-3.3,2.6-5.1,2.9-6.7,3.6
		l0.2,0.6c0.6,2.1,2.8,4.6,5.2,4c2.9-0.8,7.6-7.2,7.9-7.9c0.2-0.9,0.5-2,1.4-2.3c0.9-0.2,2.1,0.4,2.3,1.4
		C587.7,177.6,587.4,178.6,586.8,179.2z M577.1,172.7c0,0,0-0.1-0.2,0c-0.5,0.1-1.8,0.6-3.4,1.9c-1.5,1.2-2.5,3-2.5,3
		s2.5-1.1,3.7-2.1c1.3-1.1,2-2.1,2.3-2.5C577.1,172.8,577.1,172.8,577.1,172.7z"/>
</g>
    <animateMotion dur="15s" repeatCount="indefinite">
        <mpath xlink:href="#carPath"/>
    </animateMotion>
</g>
</svg>
