<?xml version="1.0" encoding="utf-8"?>
<!-- Generator: Adobe Illustrator 27.7.0, SVG Export Plug-In . SVG Version: 6.00 Build 0)  -->
<svg version="1.1" id="Layer_1" xmlns="http://www.w3.org/2000/svg" xmlns:xlink="http://www.w3.org/1999/xlink" x="0px" y="0px"
	 viewBox="0 0 1684 85.9" style="enable-background:new 0 0 1684 85.9;" xml:space="preserve">
<style type="text/css">
	.st0{fill:#005BA7;}
	.st1{fill:#FFFFFF;}
</style>
<rect class="st0" width="1684" height="85.9"/>
<g>
	<g>
		<path class="st1" d="M611.7,8.1c0,16.2,0,32.3,0,48.5c0,5,0,10,0,15c0,3.2,5,3.2,5,0c0-16.2,0-32.3,0-48.5c0-5,0-10,0-15
			C616.7,4.9,611.7,4.9,611.7,8.1L611.7,8.1z"/>
	</g>
</g>
<g>
	<g>
		<path class="st1" d="M1167.6,8.1c0,16.2,0,32.3,0,48.5c0,5,0,10,0,15c0,3.2,5,3.2,5,0c0-16.2,0-32.3,0-48.5c0-5,0-10,0-15
			C1172.6,4.9,1167.6,4.9,1167.6,8.1L1167.6,8.1z"/>
	</g>
</g>
</svg>
