<?xml version="1.0" encoding="utf-8"?>
<!-- Generator: Adobe Illustrator 27.7.0, SVG Export Plug-In . SVG Version: 6.00 Build 0)  -->
<svg version="1.1" id="Layer_1" xmlns="http://www.w3.org/2000/svg" xmlns:xlink="http://www.w3.org/1999/xlink" x="0px" y="0px"
	 viewBox="0 0 1147.9 642.4" style="enable-background:new 0 0 1147.9 642.4;" xml:space="preserve">
<style type="text/css">
	.st0{fill:#A0CF6E;}
	.st1{fill:#010101;}
	.st2{fill:#FFFFFF;stroke:#010101;stroke-width:4.6017;stroke-miterlimit:10;}
	.st3{fill:#010101;stroke:#010101;stroke-miterlimit:10;}
	.st4{fill:#FCE0CE;stroke:#010101;stroke-width:4.6017;stroke-miterlimit:10;}
	.st5{fill:#04B1DC;}
	.st6{fill:#C87161;}
	.st7{fill:#010101;stroke:#010101;stroke-width:4.6017;stroke-miterlimit:10;}
	.st8{fill:#FFFFFF;}
	.st9{fill:none;stroke:#FFFFFF;stroke-width:4.6017;stroke-miterlimit:10;}
	.st10{fill:#826D5E;stroke:#010101;stroke-width:4.6017;stroke-miterlimit:10;}
	.st11{fill:#F4EC48;stroke:#010101;stroke-width:4.6017;stroke-miterlimit:10;}
	.st12{fill:#A0CF6E;stroke:#010101;stroke-width:4.602;stroke-miterlimit:10;}
	.st13{fill:#B7A79F;stroke:#010101;stroke-width:4.6017;stroke-miterlimit:10;}
	.st14{fill:#3F65AF;}
	.st15{fill:#3F65AF;stroke:#010101;stroke-width:4.6017;stroke-miterlimit:10;}
	.st16{fill:#3F65AF;stroke:#010101;stroke-miterlimit:10;}
</style>
<g>
	<g>
		<path class="st0" d="M484.7,73.1c-7.7-1.8-18.8,3.4-16.1,12.4l-0.9,2.7c-11.9,0.4-12.4,21.5,1.2,22.2c3.7-0.5,0.7,8.6,5.4,6.8
			c1.4,9.2,14.2,13,20.7,6.9c8.1,5.1,15.4-6.2,16.3-13.6c11.4,9,11.5-18.4-1.9-13.2c6.4-5.1,3.9-15.9-5.2-13.3
			c6.6-16.1-22.5-19-20.8-3.8"/>
		<g>
			<path class="st1" d="M485.4,70.7c-9.4-2.1-22.3,4.3-19.2,15.5c0-0.4,0-0.9,0-1.3c-0.3,0.9-0.6,1.8-0.9,2.7
				c0.8-0.6,1.6-1.2,2.4-1.8c-7.7,0.3-12.2,7.7-11.4,15c0.4,3.5,1.9,7,4.7,9.3c1.5,1.2,3.3,2.1,5.2,2.6c1,0.2,2,0.4,3,0.3
				c0.3,0-0.6-0.2-0.2,0c0,0-0.9-0.6-0.5-0.3c-0.4-0.3-0.3-0.3-0.1-0.1c0,0-0.1-0.5,0,0.1c0.4,1.6,0.4,3.4,1.2,4.9
				c1,2.1,3.3,2.9,5.5,2.1c-1-0.6-2.1-1.2-3.1-1.7c1.9,11.1,16.9,15.2,24.9,8c-1,0.1-2,0.3-3,0.4c10.4,6.3,18.9-6.8,20.1-15.7
				c-1.4,0.6-2.8,1.2-4.3,1.8c2.2,1.7,4.9,3.2,7.7,2.3c2.4-0.7,3.8-2.9,4.5-5.2c1.2-4.5,0.1-10.3-3.7-13.3c-2.7-2.2-6.1-2.4-9.3-1.2
				c0.8,1.4,1.6,2.8,2.4,4.2c3.4-2.8,5.3-7.9,3.8-12.2c-1.7-4.9-6.6-6.6-11.4-5.3c1,1,2.1,2.1,3.1,3.1c1.3-3.2,1.5-6.7,0-9.8
				c-1.1-2.5-3.3-4.4-5.8-5.5c-5.2-2.4-12.1-2.2-16.6,1.7c-2.6,2.3-3.7,5.8-3.4,9.2c0.1,1.3,1.1,2.5,2.5,2.5c1.2,0,2.6-1.1,2.5-2.5
				c-0.1-0.7-0.1-1.3,0-1.9c0-0.7-0.1,0.1,0-0.3c0.1-0.3,0.1-0.7,0.2-1c0-0.2,0.4-0.9,0.1-0.3c0.1-0.2,0.2-0.4,0.3-0.6
				s0.3-0.4,0.4-0.7c0.2-0.3-0.4,0.4,0,0c0.1-0.1,0.2-0.2,0.3-0.3c0.2-0.2,0.4-0.4,0.6-0.5c0.5-0.5-0.2,0.1,0.2-0.1
				c0.5-0.3,1-0.6,1.5-0.9c0.3-0.2-0.4,0.1,0.2-0.1c0.3-0.1,0.5-0.2,0.8-0.3c0.6-0.2,1.1-0.3,1.7-0.4c-0.7,0.1,0.1,0,0.3,0
				c0.3,0,0.6,0,0.9,0c0.6,0,1.1,0,1.7,0.1c0.7,0.1-0.2-0.1,0.4,0c0.3,0.1,0.6,0.1,0.8,0.2c0.6,0.1,1.1,0.3,1.7,0.5
				c0.1,0,0.2,0.1,0.3,0.1c0.4,0.1-0.5-0.3,0,0c0.2,0.1,0.4,0.2,0.7,0.3c0.5,0.3,1,0.6,1.4,0.9c0.3,0.2-0.4-0.4,0,0
				c0.1,0.1,0.2,0.2,0.3,0.2c0.2,0.2,0.3,0.3,0.5,0.5c0.1,0.1,0.7,0.9,0.3,0.3c0.2,0.2,0.3,0.5,0.5,0.7c0.1,0.3,0.3,0.5,0.4,0.8
				c-0.3-0.6,0.1,0.2,0.1,0.4c0.1,0.3,0.1,0.6,0.2,0.9c-0.1-0.7,0,0.3,0,0.5c0,0.3,0,0.7,0,1c0,0-0.1,0.7,0,0.3c0-0.4,0,0.2-0.1,0.3
				c-0.2,0.9-0.4,1.7-0.8,2.5c-0.7,1.8,1.4,3.5,3.1,3.1c1-0.3,1.4-0.3,2.4-0.3c0.4,0,1,0.2,1.3,0.3c0.2,0.1,0.3,0.2,0.5,0.3
				c0.4,0.2-0.1-0.1,0.1,0.1c0.1,0.1,0.7,0.8,0.4,0.4c0.2,0.3,0.3,0.5,0.5,0.8c0.1,0.2,0.2,0.4,0.1,0.1c0.1,0.2,0.1,0.4,0.2,0.5
				c0.3,1.1,0.3,2.2-0.1,3.5c-0.4,1.2-1.3,2.4-2.5,3.4c-1.9,1.6,0.1,5,2.4,4.2c0.5-0.2,1.1-0.4,1.7-0.5c0.1,0,0.3,0,0.4-0.1
				c-0.1,0-0.5,0-0.1,0c0.3,0,0.5,0,0.8,0s0.6,0.1,0.1,0c0.2,0,0.4,0.1,0.6,0.1c0.2,0.1,0.4,0.1,0.6,0.2c-0.7-0.3,0,0,0.2,0.1
				c0.1,0,0.7,0.4,0.3,0.2c-0.3-0.2,0.2,0.2,0.3,0.3c0.2,0.1,0.3,0.3,0.4,0.5c0.1,0.1,0.1,0.1,0.2,0.2c0.4,0.4-0.3-0.5,0,0
				c0.2,0.4,0.5,0.7,0.7,1.1c0,0.1,0.3,0.7,0.1,0.3c-0.1-0.3,0.1,0.4,0.2,0.5c0.1,0.4,0.3,0.9,0.4,1.3c0,0.2,0.1,0.4,0.1,0.7
				c0.1,0.3,0-0.5,0,0.3c0,0.4,0,0.8,0,1.2c0,0.2,0,0.4,0,0.7c0,0.5-0.1,0.5,0,0.2c-0.1,0.4-0.1,0.8-0.3,1.2c0,0.2-0.1,0.3-0.2,0.5
				c-0.2,0.6,0.3-0.4-0.1,0.2c-0.1,0.2-0.6,0.9-0.4,0.6c0.3-0.4-0.1,0.1-0.2,0.2c-0.4,0.5,0.2-0.3,0,0c-0.1,0.1-0.7,0.4-0.2,0.2
				c0.5-0.2-0.2,0.1-0.3,0.1c-0.3-0.1,0.2,0,0.3,0c-0.1,0-0.3,0-0.4,0c-0.4,0-0.5-0.1,0,0c-0.2-0.1-0.5-0.1-0.7-0.2
				c-0.6-0.2,0.2,0.1-0.3-0.1c-0.3-0.2-0.5-0.3-0.8-0.4c-0.1-0.1-0.9-0.6-0.6-0.4c-1.8-1.4-4-0.5-4.3,1.8c0-0.3,0,0.2-0.1,0.3
				c0,0.2-0.1,0.5-0.1,0.7c-0.1,0.4-0.2,0.9-0.3,1.3c-0.3,0.9-0.6,1.7-0.9,2.4c-0.8,1.7-1.8,3.4-3.1,4.8c-1.1,1.2-2.4,2.2-3.7,2.6
				c-1.5,0.5-2.7,0.2-4.3-0.7c-1-0.6-2.2-0.4-3,0.4c-5.3,4.8-15.3,1.6-16.6-5.8c-0.2-1.3-1.9-2.2-3.1-1.7c-0.2,0.1-0.5,0.1-0.6,0.2
				c0.1-0.1,0.5,0,0.1,0c0.6,0.1,0.4,0.1,0.2,0c0.1,0,0.8,0.6,0.5,0.3c0.4,0.4,0.1,0.2,0-0.1c0.2,0.8-0.1-0.4-0.1-0.5
				c-0.3-1.2-0.3-2.4-0.7-3.5c-0.6-1.8-1.9-3.1-3.9-3.2c-0.4,0-0.7,0-1.1,0c0.4,0-0.4-0.1-0.6-0.1c-0.4-0.1-0.8-0.2-1.2-0.3
				c-0.1,0-0.3-0.1-0.4-0.2c0.5,0.2-0.2-0.1-0.3-0.2c-0.3-0.2-0.6-0.3-0.9-0.5c0,0-0.6-0.4-0.3-0.2c0.3,0.2-0.3-0.2-0.2-0.2
				c-0.2-0.2-0.5-0.4-0.7-0.7c-0.1-0.1-0.2-0.3-0.4-0.4c-0.4-0.5,0.3,0.4-0.1-0.2c-0.4-0.6-0.7-1.1-1-1.7c-0.1-0.1-0.2-0.6,0-0.1
				c-0.1-0.1-0.1-0.3-0.1-0.4c-0.1-0.4-0.2-0.7-0.3-1.1c-0.1-0.3-0.1-0.6-0.2-0.9c-0.1-0.7,0,0.5,0-0.2c0-0.1,0-0.3,0-0.4
				c-0.1-0.7-0.1-1.4,0-2.1c0-0.2,0-0.4,0.1-0.5c0-0.4-0.1,0.6,0-0.1c0.1-0.3,0.1-0.6,0.2-0.9c0.1-0.3,0.2-0.6,0.3-0.9
				c0.1-0.2,0.1-0.3,0.2-0.5c0.2-0.6-0.1,0.2,0.1-0.3c0.2-0.3,0.3-0.6,0.5-0.9c0.1-0.1,0.2-0.3,0.3-0.4s0.5-0.7,0.1-0.2
				c0.2-0.3,0.4-0.5,0.7-0.7c0.1-0.1,0.2-0.2,0.4-0.3c0.1-0.1,0.6-0.4,0.3-0.2c-0.1,0.1,0.6-0.3,0.8-0.5c0.1-0.1,0.3-0.2,0.5-0.2
				c0.1-0.1-0.3,0.1,0.2-0.1c0.4-0.1,0.7-0.2,1.1-0.3c0.1,0,0.3-0.1,0.4-0.1c-0.6,0.1,0.4,0,0.5,0c1.1,0,2.1-0.7,2.4-1.8
				c0.2-0.7,0.5-1.5,0.7-2.2c0.3-1.1-0.1-2.3-0.1-3.1c-0.1-1.2-0.1-1.8,0.4-3c-0.1,0.4,0.2-0.3,0.2-0.4c0.1-0.2,0.3-0.5,0.4-0.7
				c0.2-0.2,0.4-0.5,0.8-0.9c1.4-1.4,3.2-2.3,5.2-2.9c2.1-0.6,4.3-0.7,6.3-0.2C487.2,76.2,488.5,71.4,485.4,70.7L485.4,70.7z"/>
		</g>
	</g>
	<g>
		<path class="st2" d="M474.4,87.4c-2,4.5-1.7,11.7-1.8,15.5c0.1,1.2,0.9,2.6,2,3.1c0.9,0.4,1.7,0.5,2.8,0.5c2.4,0,4.6-1.3,5.7-3.5
			c0.6-1.2,0.9-2.5,1.3-3.6c0.4-1.7,1-4.2,1.2-6.8C482.1,90.2,478.4,88.1,474.4,87.4z"/>
		<path class="st3" d="M482.7,112.3c-0.6,0.1-1,0.6-0.9,1.3c0.1,0.7,0.5,1.6,1.1,2.4c1.5,1.9,3.7,2.2,4.9,2.2c0.4,0,0.9-0.2,1.1-0.5
			c1.9-2.4,4.6-4.3,7.7-5.8c0.5-0.2,0.3-0.9-0.3-0.9C491.8,111.4,487.2,111.8,482.7,112.3z"/>
		<path class="st0" d="M481.9,96.7c0.3,2.5-3,3.7-3.6,0.9c-0.4-1.3,0.6-2.9,1.9-3C481,95.1,482.1,95.7,481.9,96.7z"/>
	</g>
	<g>
		<path class="st2" d="M501.6,88.4c2,4.5,1.7,11.7,1.8,15.5c-0.1,1.2-0.9,2.6-2,3.1c-1.1,0.6-2.3,0.7-3.4,0.3
			c-0.5-0.2-1-0.2-1.6-0.3c-2.7-0.5-4-4.2-4.7-6.6c-0.4-1.7-1-4.2-1.2-6.8C493.9,91.1,497.6,89.1,501.6,88.4z"/>
		<path class="st0" d="M494.1,97.7c-0.3,2.5,3,3.7,3.6,0.9c0.4-1.3-0.6-2.9-1.9-3C495,96.1,493.9,96.6,494.1,97.7z"/>
	</g>
</g>
<g>
	<g>
		<path class="st0" d="M978.6,71.4c-7.7-1.8-18.8,3.4-16.1,12.4l-0.9,2.7c-11.9,0.4-12.4,21.5,1.2,22.2c3.7-0.5,0.7,8.6,5.4,6.8
			c1.4,9.2,14.2,13,20.7,6.9c8.1,5.1,15.4-6.2,16.3-13.6c11.4,9,11.5-18.4-1.9-13.2c6.4-5.1,3.9-15.9-5.2-13.3
			c6.6-16.1-22.5-19-20.8-3.8"/>
		<g>
			<path class="st1" d="M979.3,69c-9.4-2.1-22.3,4.3-19.2,15.5c0-0.4,0-0.9,0-1.3c-0.3,0.9-0.6,1.8-0.9,2.7c0.8-0.6,1.6-1.2,2.4-1.8
				c-7.7,0.3-12.2,7.7-11.4,15c0.4,3.5,1.9,7,4.7,9.3c1.5,1.2,3.3,2.1,5.2,2.6c1,0.2,2,0.4,3,0.3c0.3,0-0.6-0.2-0.2,0
				c0,0-0.9-0.6-0.5-0.3c-0.4-0.3-0.3-0.3-0.1-0.1c0,0-0.1-0.5,0,0.1c0.4,1.6,0.4,3.4,1.2,4.9c1,2.1,3.3,2.9,5.5,2.1
				c-1-0.6-2.1-1.2-3.1-1.7c1.9,11.1,16.9,15.2,24.9,8c-1,0.1-2,0.3-3,0.4c10.4,6.3,18.9-6.8,20.1-15.7c-1.4,0.6-2.8,1.2-4.3,1.8
				c2.2,1.7,4.9,3.2,7.7,2.3c2.4-0.7,3.8-2.9,4.5-5.2c1.2-4.5,0.1-10.3-3.7-13.3c-2.7-2.2-6.1-2.4-9.3-1.2c0.8,1.4,1.6,2.8,2.4,4.2
				c3.4-2.8,5.3-7.9,3.8-12.2c-1.7-4.9-6.6-6.6-11.4-5.3c1,1,2.1,2.1,3.1,3.1c1.3-3.2,1.5-6.7,0-9.8c-1.1-2.5-3.3-4.4-5.8-5.5
				c-5.2-2.4-12.1-2.2-16.6,1.7c-2.6,2.3-3.7,5.8-3.4,9.2c0.1,1.3,1.1,2.5,2.5,2.5c1.2,0,2.6-1.1,2.5-2.5c-0.1-0.7-0.1-1.3,0-1.9
				c0-0.7-0.1,0.1,0-0.3c0.1-0.3,0.1-0.7,0.2-1c0-0.2,0.4-0.9,0.1-0.3c0.1-0.2,0.2-0.4,0.3-0.6s0.3-0.4,0.4-0.7c0.2-0.3-0.4,0.4,0,0
				c0.1-0.1,0.2-0.2,0.3-0.3c0.2-0.2,0.4-0.4,0.6-0.5c0.5-0.5-0.2,0.1,0.2-0.1c0.5-0.3,1-0.6,1.5-0.9c0.3-0.2-0.4,0.1,0.2-0.1
				c0.3-0.1,0.5-0.2,0.8-0.3c0.6-0.2,1.1-0.3,1.7-0.4c-0.7,0.1,0.1,0,0.3,0c0.3,0,0.6,0,0.9,0c0.6,0,1.1,0,1.7,0.1
				c0.7,0.1-0.2-0.1,0.4,0c0.3,0.1,0.6,0.1,0.8,0.2c0.6,0.1,1.1,0.3,1.7,0.5c0.1,0,0.2,0.1,0.3,0.1c0.4,0.1-0.5-0.3,0,0
				c0.2,0.1,0.4,0.2,0.7,0.3c0.5,0.3,1,0.6,1.4,0.9c0.3,0.2-0.4-0.4,0,0c0.1,0.1,0.2,0.2,0.3,0.2c0.2,0.2,0.3,0.3,0.5,0.5
				c0.1,0.1,0.7,0.9,0.3,0.3c0.2,0.2,0.3,0.5,0.5,0.7c0.1,0.3,0.3,0.5,0.4,0.8c-0.3-0.6,0.1,0.2,0.1,0.4c0.1,0.3,0.1,0.6,0.2,0.9
				c-0.1-0.7,0,0.3,0,0.5c0,0.3,0,0.7,0,1c0,0-0.1,0.7,0,0.3c0-0.4,0,0.2-0.1,0.3c-0.2,0.9-0.4,1.7-0.8,2.5
				c-0.7,1.8,1.4,3.5,3.1,3.1c1-0.3,1.4-0.3,2.4-0.3c0.4,0,1,0.2,1.3,0.3c0.2,0.1,0.3,0.2,0.5,0.3c0.4,0.2-0.1-0.1,0.1,0.1
				c0.1,0.1,0.7,0.8,0.4,0.4c0.2,0.3,0.3,0.5,0.5,0.8c0.1,0.2,0.2,0.4,0.1,0.1c0.1,0.2,0.1,0.4,0.2,0.5c0.3,1.1,0.3,2.2-0.1,3.5
				c-0.4,1.2-1.3,2.4-2.5,3.4c-1.9,1.6,0.1,5,2.4,4.2c0.5-0.2,1.1-0.4,1.7-0.5c0.1,0,0.3,0,0.4-0.1c-0.1,0-0.5,0-0.1,0
				c0.3,0,0.5,0,0.8,0s0.6,0.1,0.1,0c0.2,0,0.4,0.1,0.6,0.1c0.2,0.1,0.4,0.1,0.6,0.2c-0.7-0.3,0,0,0.2,0.1c0.1,0,0.7,0.4,0.3,0.2
				c-0.3-0.2,0.2,0.2,0.3,0.3c0.2,0.1,0.3,0.3,0.4,0.5c0.1,0.1,0.1,0.1,0.2,0.2c0.4,0.4-0.3-0.5,0,0c0.2,0.4,0.5,0.7,0.7,1.1
				c0,0.1,0.3,0.7,0.1,0.3c-0.1-0.3,0.1,0.4,0.2,0.5c0.1,0.4,0.3,0.9,0.4,1.3c0,0.2,0.1,0.4,0.1,0.7c0.1,0.3,0-0.5,0,0.3
				c0,0.4,0,0.8,0,1.2c0,0.2,0,0.4,0,0.7c0,0.5-0.1,0.5,0,0.2c-0.1,0.4-0.1,0.8-0.3,1.2c0,0.2-0.1,0.3-0.2,0.5
				c-0.2,0.6,0.3-0.4-0.1,0.2c-0.1,0.2-0.6,0.9-0.4,0.6c0.3-0.4-0.1,0.1-0.2,0.2c-0.4,0.5,0.2-0.3,0,0c-0.1,0.1-0.7,0.4-0.2,0.2
				c0.5-0.2-0.2,0.1-0.3,0.1c-0.3-0.1,0.2,0,0.3,0c-0.1,0-0.3,0-0.4,0c-0.4,0-0.5-0.1,0,0c-0.2-0.1-0.5-0.1-0.7-0.2
				c-0.6-0.2,0.2,0.1-0.3-0.1c-0.3-0.2-0.5-0.3-0.8-0.4c-0.1-0.1-0.9-0.6-0.6-0.4c-1.8-1.4-4-0.5-4.3,1.8c0-0.3,0,0.2-0.1,0.3
				c0,0.2-0.1,0.5-0.1,0.7c-0.1,0.4-0.2,0.9-0.3,1.3c-0.3,0.9-0.6,1.7-0.9,2.4c-0.8,1.7-1.8,3.4-3.1,4.8c-1.1,1.2-2.4,2.2-3.7,2.6
				c-1.5,0.5-2.7,0.2-4.3-0.7c-1-0.6-2.2-0.4-3,0.4c-5.3,4.8-15.3,1.6-16.6-5.8c-0.2-1.3-1.9-2.2-3.1-1.7c-0.2,0.1-0.5,0.1-0.6,0.2
				c0.1-0.1,0.5,0,0.1,0c0.6,0.1,0.4,0.1,0.2,0c0.1,0,0.8,0.6,0.5,0.3c0.4,0.4,0.1,0.2,0-0.1c0.2,0.8-0.1-0.4-0.1-0.5
				c-0.3-1.2-0.3-2.4-0.7-3.5c-0.6-1.8-1.9-3.1-3.9-3.2c-0.4,0-0.7,0-1.1,0c0.4,0-0.4-0.1-0.6-0.1c-0.4-0.1-0.8-0.2-1.2-0.3
				c-0.1,0-0.3-0.1-0.4-0.2c0.5,0.2-0.2-0.1-0.3-0.2c-0.3-0.2-0.6-0.3-0.9-0.5c0,0-0.6-0.4-0.3-0.2c0.3,0.2-0.3-0.2-0.2-0.2
				c-0.2-0.2-0.5-0.4-0.7-0.7c-0.1-0.1-0.2-0.3-0.4-0.4c-0.4-0.5,0.3,0.4-0.1-0.2c-0.4-0.6-0.7-1.1-1-1.7c-0.1-0.1-0.2-0.6,0-0.1
				c-0.1-0.1-0.1-0.3-0.1-0.4c-0.1-0.4-0.2-0.7-0.3-1.1c-0.1-0.3-0.1-0.6-0.2-0.9c-0.1-0.7,0,0.5,0-0.2c0-0.1,0-0.3,0-0.4
				c-0.1-0.7-0.1-1.4,0-2.1c0-0.2,0-0.4,0.1-0.5c0-0.4-0.1,0.6,0-0.1c0.1-0.3,0.1-0.6,0.2-0.9c0.1-0.3,0.2-0.6,0.3-0.9
				c0.1-0.2,0.1-0.3,0.2-0.5c0.2-0.6-0.1,0.2,0.1-0.3c0.2-0.3,0.3-0.6,0.5-0.9c0.1-0.1,0.2-0.3,0.3-0.4s0.5-0.7,0.1-0.2
				c0.2-0.3,0.4-0.5,0.7-0.7c0.1-0.1,0.2-0.2,0.4-0.3c0.1-0.1,0.6-0.4,0.3-0.2c-0.1,0.1,0.6-0.3,0.8-0.5c0.1-0.1,0.3-0.2,0.5-0.2
				c0.1-0.1-0.3,0.1,0.2-0.1c0.4-0.1,0.7-0.2,1.1-0.3c0.1,0,0.3-0.1,0.4-0.1c-0.6,0.1,0.4,0,0.5,0c1.1,0,2.1-0.7,2.4-1.8
				c0.2-0.7,0.5-1.5,0.7-2.2c0.3-1.1-0.1-2.3-0.1-3.1c-0.1-1.2-0.1-1.8,0.4-3c-0.1,0.4,0.2-0.3,0.2-0.4c0.1-0.2,0.3-0.5,0.4-0.7
				c0.2-0.2,0.4-0.5,0.8-0.9c1.4-1.4,3.2-2.3,5.2-2.9c2.1-0.6,4.3-0.7,6.3-0.2C981.1,74.5,982.4,69.7,979.3,69L979.3,69z"/>
		</g>
	</g>
	<g>
		<path class="st2" d="M968.3,85.7c-2,4.5-1.7,11.7-1.8,15.5c0.1,1.2,0.9,2.6,2,3.1c0.9,0.4,1.7,0.5,2.8,0.5c2.4,0,4.6-1.3,5.7-3.5
			c0.6-1.2,0.9-2.5,1.3-3.6c0.4-1.7,1-4.2,1.2-6.8C976,88.5,972.3,86.4,968.3,85.7z"/>
		<path class="st3" d="M976.6,110.6c-0.6,0.1-1,0.6-0.9,1.3c0.1,0.7,0.5,1.6,1.1,2.4c1.5,1.9,3.7,2.2,4.9,2.2c0.4,0,0.9-0.2,1.1-0.5
			c1.9-2.4,4.6-4.3,7.7-5.8c0.5-0.2,0.3-0.9-0.3-0.9C985.7,109.7,981.1,110.1,976.6,110.6z"/>
		<path class="st0" d="M975.8,95c0.3,2.5-3,3.7-3.6,0.9c-0.4-1.3,0.6-2.9,1.9-3C974.9,93.4,976,94,975.8,95z"/>
	</g>
	<g>
		<path class="st2" d="M995.5,86.7c2,4.5,1.7,11.7,1.8,15.5c-0.1,1.2-0.9,2.6-2,3.1c-1.1,0.6-2.3,0.7-3.4,0.3
			c-0.5-0.2-1-0.2-1.6-0.3c-2.7-0.5-4-4.2-4.7-6.6c-0.4-1.7-1-4.2-1.2-6.8C987.8,89.4,991.5,87.4,995.5,86.7z"/>
		<path class="st0" d="M988,96c-0.3,2.5,3,3.7,3.6,0.9c0.4-1.3-0.6-2.9-1.9-3C988.9,94.4,987.8,94.9,988,96z"/>
	</g>
</g>
<g>
	<g>
		<g>
			<g>
				<path class="st1" d="M550.1,449.7c0.2,34.1,2.6,68.1,1.7,102.2c10.8,17.8,2.4-76.3,3.7-82.1c-0.2-6.7-0.3-13.4-0.4-20.1
					C555.1,446.5,550.1,446.5,550.1,449.7L550.1,449.7z"/>
			</g>
		</g>
		<g>
			<path class="st1" d="M553.2,553.1c12.1-2.5,23.9-8.7,36.2-7.1C609.8,551.7,581.4,574.8,553.2,553.1z"/>
		</g>
	</g>
	<g>
		<path class="st4" d="M657.1,256.6c-8.9-7.9,2.6-23.9,13.1-19.2C683.3,246.8,670.1,266,657.1,256.6z"/>
		<g>
			<path class="st5" d="M454.5,292.6c-2,8.8-1.1,17.8-3.1,26.6c7.4,2.4,17.3,3.5,22.6,9.5c-6.3,22.2-15.5,44.5-18.5,67.9
				c36.2-2.6,72.5-3.9,108.7-3.9c-7-22.6-12-45.8-14.8-69.2c15.8-6.3,31.6-12.6,47.3-19c-4.7-8.3-9.4-16.7-14.2-25
				C536.4,309.5,505.8,307.6,454.5,292.6z"/>
			<g>
				<path class="st1" d="M452.1,291.9c-1.9,8.8-1.2,17.9-3.1,26.6c-0.3,1.4,0.4,2.6,1.7,3.1c7.1,2.3,16.1,3,21.5,8.9
					c-0.2-0.8-0.4-1.6-0.6-2.4c-33.3,103.7-24.8,62.7,68.8,67.3c4.1-1.1,29,2.5,26.3-3.4c-6.9-22.3-11.8-45.3-14.7-68.5
					c-0.6,0.8-1.2,1.6-1.8,2.4c5.5-3.5,54-18.2,48.8-22.7c-3.3-3.8-13.3-28.9-17.6-25.9c-30.9,19.4-60.4,29.9-96.9,19.9
					c-9.8-2-19.5-4.5-29.1-7.1c-3.1-0.8-4.4,4-1.3,4.8c57,15.2,78.6,17.9,130-13.4c-1.1-0.3-2.3-0.6-3.4-0.9
					c4.7,8.3,9.4,16.7,14.2,25c0.5-1.2,1-2.4,1.5-3.7c-15.8,6.3-31.6,12.6-47.3,19c-0.9,0.4-2,1.3-1.8,2.4
					c2.8,23.7,7.8,47.1,14.9,69.9c0.8-1.1,1.6-2.1,2.4-3.2c-36.2,0-72.5,1.2-108.7,3.8c0.8,0.8,1.7,1.7,2.5,2.5
					c3-22.1,11.4-42.8,17.6-64.1c4.2-11.2-16.5-12.8-23.5-15.6c0.6,1,1.2,2.1,1.7,3.1c1.9-8.8,1.2-17.9,3.1-26.6
					C457.6,290.1,452.7,288.8,452.1,291.9z"/>
			</g>
		</g>
		<g>
			<g>
				<g>
					<path class="st1" d="M476.8,449.1c0,37.7-2,75.6-3.8,113.3c9.2,19.5,7.1-84.9,8.6-90.6c0.2-7.5,0.3-15.1,0.2-22.6
						C481.8,445.9,476.8,445.9,476.8,449.1L476.8,449.1z"/>
				</g>
			</g>
			<g>
				<path class="st1" d="M476.3,563.8c-10.8-7.1-25-8.9-38-8.8c-9.7-1.5-20.5,9.8-7.5,14.5C445.9,573.7,461.7,567.9,476.3,563.8z"/>
			</g>
		</g>
		<g>
			<path class="st6" d="M442,463.4c46.6-2.9,97.1-13.8,142.1,1.9c-28.6-103,3.6-72.3-126.6-72.4C454.6,397.7,443.6,457.1,442,463.4z
				"/>
			<g>
				<path class="st1" d="M442,465.9c46.3-2.9,95.8-13.7,140.8,1.5c1.8,1.1,4.4-0.7,3.7-2.8c-6.2-19.4-10-39.6-15.3-59.2
					c-3.4-13.2-3.8-20.7-20-18.1c-26,0.7-52.1,1.4-78.1,2.1c-7.1,0.6-20.1-1.8-19.8,6.7c-4,22-9.5,43.8-13.6,65.8
					c-1.7,3.8,4.2,5.8,4.8,1.5c4.6-19.9,8.9-47.9,14.9-68.8c34-0.2,68.8-3.1,102.5-2c8.7,23.7,11.9,49.3,19.8,73.3
					c1.2-0.9,2.4-1.9,3.7-2.8c-45.7-16.2-96.1-5.3-143.3-2.2C439,461,438.7,465.9,442,465.9z"/>
			</g>
		</g>
		<g>
			<g>
				<path class="st1" d="M590.4,291.8c21.2-12,42.8-23.2,64.8-33.7c1.2-0.6,1.5-2.3,0.9-3.4c-0.7-1.2-2.2-1.5-3.4-0.9
					c-17.1,8.2-34,16.8-50.6,25.9c-4.7,2.6-9.5,5.2-14.2,7.9C585.1,289.1,587.6,293.4,590.4,291.8z"/>
			</g>
		</g>
		<g>
			<g>
				<path class="st1" d="M454.2,304.4c-17.6-7.3-34.9-15.4-51.8-24.1c0.3,1.1,0.6,2.3,0.9,3.4c6.1-8.4,10.7-17.8,13.7-27.7
					c0.9-3.1-3.9-4.4-4.8-1.3c-2.9,9.5-7.4,18.5-13.2,26.6c-0.8,1.1-0.2,2.8,0.9,3.4C403.3,285.9,467.5,320.6,454.2,304.4
					L454.2,304.4z"/>
			</g>
		</g>
		<g>
			<g>
				<g>
					<g>
						<path class="st4" d="M558,171.7c56.9,34.2,10.2,133.9-52.5,118.8c-33.7-12.7-51.2-60.7-35.1-92.6
							C486.9,171.6,530.3,153.4,558,171.7z"/>
						<path class="st7" d="M500.9,203.4c-20.6-0.3-23.9,37.4-7,44C521.7,255.9,525,206.1,500.9,203.4z"/>
						<path class="st8" d="M509.7,221.2"/>
					</g>
					<path class="st1" d="M553.3,204.8c-26.8-2.7-32.6,49.3-1.8,46.5C575.5,253.1,572.7,210.7,553.3,204.8z"/>
					<path class="st8" d="M547.3,248.1c-8.1,0-10.8-9.4-8.6-11.3c4.4-5.4,22.2-12.3,24.9-3.3C563.7,242,561.8,248.1,547.3,248.1z"/>
					<path class="st8" d="M554.4,208.9c13.6,7-4.9,13-9.5,6.5C539.8,209.3,551,207.2,554.4,208.9z"/>
				</g>
				<path class="st8" d="M495.4,243.5c5.2,1.3,13.2-0.2,15.2-5.7C523.8,212.1,471.6,237.6,495.4,243.5z"/>
				<path class="st8" d="M501.2,219.9c21.8-1-6.5-22.4-6.8-6.6C495.4,216.6,497.6,219.8,501.2,219.9z"/>
			</g>
			<g>
				<g>
					<path class="st1" d="M513,264.1c8.1,0,16.3,0,24.4,0c3.2,0,3.2-5,0-5c-8.1,0-16.3,0-24.4,0C509.8,259.1,509.7,264.1,513,264.1z
						"/>
				</g>
			</g>
		</g>
		<g>
			<g>
				<path class="st1" d="M385,217.5c-2.6,11.2-12.1,35.8,4.7,38.6c16.1,1.4,32.6,5.9,48.7,5.5c19.3-23.3,16.2-59.1,26.6-87.1
					c4.5-11.7,4.8-27.1-10.1-27.8C371.6,130.5,403.2,142.4,385,217.5z"/>
			</g>
			<path class="st9" d="M449.5,193c-9.9,0.9-15.7-11.1-15.9-19.7c8.1,94-59.3,40.7-15.7,25.1"/>
		</g>
	</g>
</g>
<g>
	<g>
		<path class="st1" d="M989.5,512.7c6.8,17.6,25.9,27.6,32.9,44.3c-3.5,9.6-7.1,19.3-9.9,29.2c-0.6,3.4-12.5,39-1.8,28.7
			c3.3-16.6,7.9-32.9,13.7-48.8c1.1-3.9,4.2-7.9,2.9-12.1c-4.9-9.5-13.3-16.8-20.3-24.8c-5.2-5.8-9.9-11.9-13.1-19
			C992.4,507.5,987.9,509.9,989.5,512.7L989.5,512.7z"/>
	</g>
</g>
<g>
	<path class="st10" d="M723,395.3c-11.7-1.8-10.8-21.5,0.6-23.2C739.5,372.9,739.2,395.9,723,395.3z"/>
	<g>
		<path class="st1" d="M900,638.4c-7.2-10.4-22.4-17.2-35.3-21.2c-8.5-3.2-43.1-8-31.6,9.6C850.8,642.3,877.9,646.5,900,638.4z"/>
	</g>
	<g>
		<path class="st1" d="M1008.4,614.7c17.9-3.1,35.3-11.1,53.5-9.1C1091.7,612.6,1050.8,642.5,1008.4,614.7z"/>
	</g>
	<path class="st11" d="M880.2,454.9c0.8,18.5-2.3,46.4,0.3,64.5c22.8,5.8,47.8,5.4,71.4,7c0.3-12.6-1.4-25.2-5.1-37.2
		c8.2,7.6,14.8,17,19.1,27.3c18.3-3.5,36.7-6.9,55-10.4c-5.6-24.7-8.1-53.1-15.2-76.8C961.4,433,923.5,443.1,880.2,454.9z"/>
	<g>
		<g>
			<path class="st1" d="M736.4,385.6c26-0.4,52.1,3.1,77.1,10.5c1.1,0.3,2.2-0.2,2.8-1.1c5.6-9,14-16.4,23.8-20.5
				c1.2-0.5,2.1-1.7,1.7-3.1c-4-7.6-28,15.6-29.9,21.1c0.9-0.4,1.9-0.8,2.8-1.1C811.5,388.1,718.4,372.5,736.4,385.6z"/>
		</g>
	</g>
	<path class="st12" d="M829.6,359.6c1.4,12.5,6.2,24.6,13.7,34.6c9-8.6,18.1-17.2,27.1-25.8c1.5,31.1,2.9,62.3,4.4,93.4
		c44.9-15.2,91.8-24.6,139.1-27.9c-7.5-32.1-19.6-63.7-24.6-96c10.2-20.8,27-38.5,41.5-56.5c-7.5-9.9-15.5-19.4-23.9-28.5
		c-18.8,16-37.6,31.9-56.4,47.9c-5.2,5.3-12.2,7.6-19.6,6.8C854.7,304.6,886.3,301.2,829.6,359.6z"/>
	<g>
		<g>
			<path class="st1" d="M1019,266.9c12.8-9,16.8-9,15-26c0-17.5,2.7-34.8,7.8-51.4c0.9-3.1-3.9-4.4-4.8-1.3
				c-6.5,20.7-8.5,42.3-7.7,63.9c-0.9,5.5-15.3,8.3-13.6,13.9C1016.2,267.1,1017.9,267.7,1019,266.9L1019,266.9z"/>
		</g>
	</g>
	<g>
		<g>
			<path class="st1" d="M907.3,525.8c-4,37.2-7.2,74.3-9.8,111.6c-0.1,1.3,1.2,2.5,2.5,2.5c1.4,0,2.4-1.1,2.5-2.5
				c2.5-37.3,5.9-74.5,9.8-111.6C912.3,522.7,907.3,522.5,907.3,525.8L907.3,525.8z"/>
		</g>
	</g>
	<g>
		<g>
			<g>
				<g>
					<path class="st10" d="M954.6,170.9c58.9,30.6,18.4,133.1-45.1,121.7c-34.4-10.7-54.8-57.4-40.6-90.3
						C883.7,175.2,925.9,154.3,954.6,170.9z"/>
					<path class="st7" d="M899.6,206c-20.6,0.9-21.6,38.7-4.3,44.3C923.5,257.2,923.8,207.3,899.6,206z"/>
					<path class="st8" d="M909.5,223.2"/>
				</g>
				<path class="st1" d="M952,204.2c-26.9-1-29.5,51.2,1.1,46.5C977.2,251.2,971.9,208.7,952,204.2z"/>
				<path class="st8" d="M948.6,247.8c-8.1,0.5-11.3-8.7-9.2-10.8c4.2-5.6,21-13.7,24.7-4.9C964.6,240.8,963.1,246.9,948.6,247.8z"
					/>
				<path class="st8" d="M953.4,208.3c14,6.2-4.1,13.3-9.1,7.1C938.9,209.7,949.9,206.8,953.4,208.3z"/>
			</g>
			<path class="st8" d="M896.6,246.4c5.3,1,13.1-1,14.8-6.7C923,213.4,872.4,241.9,896.6,246.4z"/>
			<path class="st8" d="M900.9,222.6c21.7-2.3-8-22-7.2-6.2C894.9,219.6,897.3,222.6,900.9,222.6z"/>
		</g>
		<g>
			<g>
				<path class="st1" d="M915.2,265.9c8.1-0.5,16.2-1,24.4-1.5c3.2-0.2,3.2-5.2,0-5c-8.1,0.5-16.2,1-24.4,1.5
					C912,261.1,912,266.1,915.2,265.9z"/>
			</g>
		</g>
	</g>
	<g>
		<g>
			<path class="st1" d="M1023.6,146.9c-32.9,40.3-3,36,27.2,56.2c17.7,10.5,46.5-55.3,59.2-66.9c8.1-8.9,13.7-22.6,0.6-28.4
				C1041.6,64.3,1065.8,85.9,1023.6,146.9z"/>
		</g>
		<path class="st9" d="M1089.8,143.9c-9.4-3-10.1-16.3-7-24.3c-29.1,89.7-70.5,14.4-24.2,17"/>
	</g>
</g>
<g>
	<g>
		<g>
			<path class="st1" d="M163.4,523.1c7,7.3,13.7,15.2,19.8,23.3c7.8,10.4,13.1,22.6,17.8,34.7c3.1,7.8,5.8,15.8,8.6,23.8
				c0.4,1.3,1.7,2.1,3.1,1.7c1.2-0.3,2.2-1.8,1.7-3.1c-5-14.4-10-28.8-16.7-42.4c-2.7-5.5-5.7-11-9.3-16c-3.3-4.5-6.8-8.8-10.4-13
				c-3.6-4.3-7.3-8.5-11.1-12.5C164.7,517.3,161.1,520.8,163.4,523.1L163.4,523.1z"/>
		</g>
	</g>
	<g>
		<g>
			<path class="st1" d="M94.7,534.1c2.3,10.6,3.7,21.5,4.8,32.3c0.5,5.4,0.6,10.9,1.1,16.3c0.7,7.4,2.1,14.7,4.1,21.9
				c2.3,8.1,5.1,16,8,23.9c0.5,1.3,1.7,2.1,3.1,1.7c1.2-0.3,2.2-1.8,1.7-3.1c-4.9-13.9-10.1-27.9-11.7-42.6
				c-0.6-5.6-0.6-11.2-1.1-16.8c-0.6-6-1.3-11.9-2.1-17.9c-0.8-5.7-1.7-11.4-2.9-17.1C98.8,529.7,94,531,94.7,534.1L94.7,534.1z"/>
		</g>
	</g>
	<path class="st12" d="M70.7,482.6c0,15.3-0.6,49.4-0.5,64.6c13.6-8.8,31.5-10.6,46.5-4.5c0.2-13.5,2.3-27,6.3-39.9
		c5.4,13.6,10.1,27.4,14.1,41.4c15.2-10.9,33.4-17.8,52-19.6c-17.3-33.1-21-74.4-77.6-70.6C98.9,456.3,89.4,475.6,70.7,482.6z"/>
	<path class="st11" d="M2.9,369.4c13.8,15.3,43.5,24.9,51.8,43.7c7.4,23.4,6.8,48.9,5.7,73.2c34.8-12.8,73.3-25.6,107.9-12.5
		c8.2-11.7-18.5-51.4-24.3-64.6c9.5,2.9,19,5.8,28.6,8.7c0.8-8.9,6.9-29.5,7.7-38.4c-17-10.6-39.4-9.5-56.5-20.1
		c-24.2,22.6-68.3,2.9-93.2-11C20,339.1,8,361.8,2.9,369.4z"/>
	<g>
		<path class="st1" d="M115,627.8c-10.8-9.5-28.3-12.4-42.6-13c-10.8-1-45.8,4.9-28.3,20.4C66.5,647,95.4,643.9,115,627.8z"/>
	</g>
	<g>
		<path class="st1" d="M212.7,605.1c8.5-18.1,35.9-42,55.9-44.1c7.4,7.6-5.3,21.3-11.7,26.6c-12.5,10.6-28.3,18.9-44.5,17.3"/>
	</g>
</g>
<g>
	<g>
		<g>
			<g>
				<path class="st13" d="M139.8,264.3c14.8,32.6-4.7,79.8-38.9,91.1C37.6,367.9-4.8,266.3,53.5,234.5
					C81.9,217.3,124.4,237.4,139.8,264.3z"/>
				<path class="st7" d="M114.3,312.8c17.2-5.9,15.5-43.7-5.2-44.2C84.9,270.3,86.1,320.2,114.3,312.8z"/>
				<path class="st8" d="M99.6,286"/>
			</g>
			<path class="st1" d="M51,268.2c-14.4,11.2-19,44.9,2.5,47.3c0.9,0.1,1.9,0.2,2.8,0.3c32.7,4.3,28.8-51.2,0.2-49.6
				C54.5,266.3,52.6,267,51,268.2z"/>
			<path class="st8" d="M60.9,311.3c8.1,0.3,11.2-8.9,9-10.9c-6.2-6-14.2-10.4-22.8-7.1c0,0-1.9,0.6-2,2.8
				C44.8,304.5,46.4,310.7,60.9,311.3z"/>
			<path class="st8" d="M55.4,271.8c-10,4.6-3.3,9.3,2.9,9.6c2.7,0.1,4.5-1.1,6.4-2.6c2-1.7,1.6-5.3-0.7-6.2
				C61.1,271.5,57.4,271.1,55.4,271.8z"/>
		</g>
		<path class="st8" d="M98,302.5c0.7,2.8,3.1,4.4,5.8,5.5c2.9,1.2,6.1,1.5,9.1,0.9C137,304,85.9,276.3,98,302.5z"/>
		<path class="st8" d="M115.2,278.8c0.6-1.6,0.1-3.4-1.2-4.5c-7.7-6.4-23.2,9.9-5.9,10.8C111.8,285.1,114.1,282,115.2,278.8z"/>
	</g>
</g>
<g>
	<g>
		<path class="st1" d="M177.6,401.9c12.6,0.2,25.1,1.9,37.3,5c1.2,0.3,2.8-0.4,3.1-1.7c3.1-18.1,6.3-36.2,9.4-54.2
			c0.2-1.3-0.4-2.7-1.7-3.1c-1.2-0.3-2.8,0.4-3.1,1.7c-3.1,18.1-6.3,36.2-9.4,54.2c1-0.6,2.1-1.2,3.1-1.7c-12.6-3.2-25.6-5-38.7-5.2
			C174.4,396.9,174.4,401.9,177.6,401.9L177.6,401.9z"/>
	</g>
</g>
<path class="st1" d="M200.1,320.6c-2.6,11.4-12.2,36.2,4.7,39c16.3,1.4,32.9,6,49.2,5.6c19.4-23.5,16.4-59.7,26.9-88
	c4.6-11.8,4.8-27.4-10.2-28.1C186.5,232.7,218.4,244.7,200.1,320.6z"/>
<path class="st9" d="M260.5,298.5c-9.9,0.9-15.7-11.1-15.9-19.7c8.1,94-59.3,40.7-15.7,25.1"/>
<g>
	<g>
		<path class="st1" d="M81.1,346.4c8.1,0,16.3,0,24.4,0c3.2,0,3.2-5,0-5c-8.1,0-16.3,0-24.4,0C77.9,341.4,77.9,346.4,81.1,346.4
			L81.1,346.4z"/>
	</g>
</g>
<g>
	<g>
		<path class="st14" d="M196.8,174.9c-7.7-1.8-18.8,3.4-16.1,12.4l-0.9,2.7c-11.9,0.4-12.4,21.5,1.2,22.2c3.7-0.5,0.7,8.6,5.4,6.8
			c1.4,9.2,14.2,13,20.7,6.9c8.1,5.1,15.4-6.2,16.3-13.6c11.4,9,11.5-18.4-1.9-13.2c6.4-5.1,3.9-15.9-5.2-13.3
			c6.6-16.1-22.5-19-20.8-3.8"/>
		<g>
			<path class="st14" d="M197.5,172.4c-9.4-2.1-22.3,4.3-19.2,15.5c0-0.4,0-0.9,0-1.3c-0.3,0.9-0.6,1.8-0.9,2.7
				c0.8-0.6,1.6-1.2,2.4-1.8c-7.7,0.3-12.2,7.7-11.4,15c0.4,3.5,1.9,7,4.7,9.3c1.5,1.2,3.3,2.1,5.2,2.6c1,0.2,2,0.4,3,0.3
				c0.3,0-0.6-0.2-0.2,0c0,0-0.9-0.6-0.5-0.3c-0.4-0.3-0.3-0.3-0.1-0.1c0,0-0.1-0.5,0,0.1c0.4,1.6,0.4,3.4,1.2,4.9
				c1,2.1,3.3,2.9,5.5,2.1c-1-0.6-2.1-1.2-3.1-1.7c1.9,11.1,16.9,15.2,24.9,8c-1,0.1-2,0.3-3,0.4c10.4,6.3,18.9-6.8,20.1-15.7
				c-1.4,0.6-2.8,1.2-4.3,1.8c2.2,1.7,4.9,3.2,7.7,2.3c2.4-0.7,3.8-2.9,4.5-5.2c1.2-4.5,0.1-10.3-3.7-13.3c-2.7-2.2-6.1-2.4-9.3-1.2
				c0.8,1.4,1.6,2.8,2.4,4.2c3.4-2.8,5.3-7.9,3.8-12.2c-1.7-4.9-6.6-6.6-11.4-5.3c1,1,2.1,2.1,3.1,3.1c1.3-3.2,1.5-6.7,0-9.8
				c-1.1-2.5-3.3-4.4-5.8-5.5c-5.2-2.4-12.1-2.2-16.6,1.7c-2.6,2.3-3.7,5.8-3.4,9.2c0.1,1.3,1.1,2.5,2.5,2.5c1.2,0,2.6-1.1,2.5-2.5
				c-0.1-0.7-0.1-1.3,0-1.9c0-0.7-0.1,0.1,0-0.3c0.1-0.3,0.1-0.7,0.2-1c0-0.2,0.4-0.9,0.1-0.3c0.1-0.2,0.2-0.4,0.3-0.6
				c0.1-0.2,0.3-0.4,0.4-0.7c0.2-0.3-0.4,0.4,0,0c0.1-0.1,0.2-0.2,0.3-0.3c0.2-0.2,0.4-0.4,0.6-0.5c0.5-0.5-0.2,0.1,0.2-0.1
				c0.5-0.3,1-0.6,1.5-0.9c0.3-0.2-0.4,0.1,0.2-0.1c0.3-0.1,0.5-0.2,0.8-0.3c0.6-0.2,1.1-0.3,1.7-0.4c-0.7,0.1,0.1,0,0.3,0
				c0.3,0,0.6,0,0.9,0c0.6,0,1.1,0,1.7,0.1c0.7,0.1-0.2-0.1,0.4,0c0.3,0.1,0.6,0.1,0.8,0.2c0.6,0.1,1.1,0.3,1.7,0.5
				c0.1,0,0.2,0.1,0.3,0.1c0.4,0.1-0.5-0.3,0,0c0.2,0.1,0.4,0.2,0.7,0.3c0.5,0.3,1,0.6,1.4,0.9c0.3,0.2-0.4-0.4,0,0
				c0.1,0.1,0.2,0.2,0.3,0.2c0.2,0.2,0.3,0.3,0.5,0.5c0.1,0.1,0.7,0.9,0.3,0.3c0.2,0.2,0.3,0.5,0.5,0.7c0.1,0.3,0.3,0.5,0.4,0.8
				c-0.3-0.6,0.1,0.2,0.1,0.4c0.1,0.3,0.1,0.6,0.2,0.9c-0.1-0.7,0,0.3,0,0.5c0,0.3,0,0.7,0,1c0,0-0.1,0.7,0,0.3c0-0.4,0,0.2-0.1,0.3
				c-0.2,0.9-0.4,1.7-0.8,2.5c-0.7,1.8,1.4,3.5,3.1,3.1c1-0.3,1.4-0.3,2.4-0.3c0.4,0,1,0.2,1.3,0.3c0.2,0.1,0.3,0.2,0.5,0.3
				c0.4,0.2-0.1-0.1,0.1,0.1c0.1,0.1,0.7,0.8,0.4,0.4c0.2,0.3,0.3,0.5,0.5,0.8c0.1,0.2,0.2,0.4,0.1,0.1c0.1,0.2,0.1,0.4,0.2,0.5
				c0.3,1.1,0.3,2.2-0.1,3.5c-0.4,1.2-1.3,2.4-2.5,3.4c-1.9,1.6,0.1,5,2.4,4.2c0.5-0.2,1.1-0.4,1.7-0.5c0.1,0,0.3,0,0.4-0.1
				c-0.1,0-0.5,0-0.1,0c0.3,0,0.5,0,0.8,0s0.6,0.1,0.1,0c0.2,0,0.4,0.1,0.6,0.1c0.2,0.1,0.4,0.1,0.6,0.2c-0.7-0.3,0,0,0.2,0.1
				c0.1,0,0.7,0.4,0.3,0.2c-0.3-0.2,0.2,0.2,0.3,0.3c0.2,0.1,0.3,0.3,0.4,0.5c0.1,0.1,0.1,0.1,0.2,0.2c0.4,0.4-0.3-0.5,0,0
				c0.2,0.4,0.5,0.7,0.7,1.1c0,0.1,0.3,0.7,0.1,0.3c-0.1-0.3,0.1,0.4,0.2,0.5c0.1,0.4,0.3,0.9,0.4,1.3c0,0.2,0.1,0.4,0.1,0.7
				c0.1,0.3,0-0.5,0,0.3c0,0.4,0,0.8,0,1.2c0,0.2,0,0.4,0,0.7c0,0.5-0.1,0.5,0,0.2c-0.1,0.4-0.1,0.8-0.3,1.2c0,0.2-0.1,0.3-0.2,0.5
				c-0.2,0.6,0.3-0.4-0.1,0.2c-0.1,0.2-0.6,0.9-0.4,0.6c0.3-0.4-0.1,0.1-0.2,0.2c-0.4,0.5,0.2-0.3,0,0c-0.1,0.1-0.7,0.4-0.2,0.2
				c0.5-0.2-0.2,0.1-0.3,0.1c-0.3-0.1,0.2,0,0.3,0c-0.1,0-0.3,0-0.4,0c-0.4,0-0.5-0.1,0,0c-0.2-0.1-0.5-0.1-0.7-0.2
				c-0.6-0.2,0.2,0.1-0.3-0.1c-0.3-0.2-0.5-0.3-0.8-0.4c-0.1-0.1-0.9-0.6-0.6-0.4c-1.8-1.4-4-0.5-4.3,1.8c0-0.3,0,0.2-0.1,0.3
				c0,0.2-0.1,0.5-0.1,0.7c-0.1,0.4-0.2,0.9-0.3,1.3c-0.3,0.9-0.6,1.7-0.9,2.4c-0.8,1.7-1.8,3.4-3.1,4.8c-1.1,1.2-2.4,2.2-3.7,2.6
				c-1.5,0.5-2.7,0.2-4.3-0.7c-1-0.6-2.2-0.4-3,0.4c-5.3,4.8-15.3,1.6-16.6-5.8c-0.2-1.3-1.9-2.2-3.1-1.7c-0.2,0.1-0.5,0.1-0.6,0.2
				c0.1-0.1,0.5,0,0.1,0c0.6,0.1,0.4,0.1,0.2,0c0.1,0,0.8,0.6,0.5,0.3c0.4,0.4,0.1,0.2,0-0.1c0.2,0.8-0.1-0.4-0.1-0.5
				c-0.3-1.2-0.3-2.4-0.7-3.5c-0.6-1.8-1.9-3.1-3.9-3.2c-0.4,0-0.7,0-1.1,0c0.4,0-0.4-0.1-0.6-0.1c-0.4-0.1-0.8-0.2-1.2-0.3
				c-0.1,0-0.3-0.1-0.4-0.2c0.5,0.2-0.2-0.1-0.3-0.2c-0.3-0.2-0.6-0.3-0.9-0.5c0,0-0.6-0.4-0.3-0.2c0.3,0.2-0.3-0.2-0.2-0.2
				c-0.2-0.2-0.5-0.4-0.7-0.7c-0.1-0.1-0.2-0.3-0.4-0.4c-0.4-0.5,0.3,0.4-0.1-0.2s-0.7-1.1-1-1.7c-0.1-0.1-0.2-0.6,0-0.1
				c-0.1-0.1-0.1-0.3-0.1-0.4c-0.1-0.4-0.2-0.7-0.3-1.1c-0.1-0.3-0.1-0.6-0.2-0.9c-0.1-0.7,0,0.5,0-0.2c0-0.1,0-0.3,0-0.4
				c-0.1-0.7-0.1-1.4,0-2.1c0-0.2,0-0.4,0.1-0.5c0-0.4-0.1,0.6,0-0.1c0.1-0.3,0.1-0.6,0.2-0.9s0.2-0.6,0.3-0.9
				c0.1-0.2,0.1-0.3,0.2-0.5c0.2-0.6-0.1,0.2,0.1-0.3c0.2-0.3,0.3-0.6,0.5-0.9c0.1-0.1,0.2-0.3,0.3-0.4c0.1-0.1,0.5-0.7,0.1-0.2
				c0.2-0.3,0.4-0.5,0.7-0.7c0.1-0.1,0.2-0.2,0.4-0.3c0.1,0,0.6-0.4,0.3-0.2c-0.1,0.1,0.6-0.3,0.8-0.5c0.1-0.1,0.3-0.2,0.5-0.2
				c0.1-0.1-0.3,0.1,0.2-0.1c0.4-0.1,0.7-0.2,1.1-0.3c0.1,0,0.3-0.1,0.4-0.1c-0.6,0.1,0.4,0,0.5,0c1.1,0,2.1-0.7,2.4-1.8
				c0.2-0.7,0.5-1.5,0.7-2.2c0.3-1.1-0.1-2.3-0.1-3.1c-0.1-1.2-0.1-1.8,0.4-3c-0.1,0.4,0.2-0.3,0.2-0.4c0.1-0.2,0.3-0.5,0.4-0.7
				c0.2-0.2,0.4-0.5,0.8-0.9c1.4-1.4,3.2-2.3,5.2-2.9c2.1-0.6,4.3-0.7,6.3-0.2C199.3,178,200.6,173.1,197.5,172.4L197.5,172.4z"/>
		</g>
	</g>
	<g>
		<path class="st15" d="M186.5,189.1c-2,4.5-1.7,11.7-1.8,15.5c0.1,1.2,0.9,2.6,2,3.1c0.9,0.4,1.7,0.5,2.8,0.5
			c2.4,0,4.6-1.3,5.7-3.5c0.6-1.2,0.9-2.5,1.3-3.6c0.4-1.7,1-4.2,1.2-6.8C194.2,191.9,190.5,189.9,186.5,189.1z"/>
		<path class="st16" d="M194.8,214c-0.6,0.1-1,0.6-0.9,1.3c0.1,0.7,0.5,1.6,1.1,2.4c1.5,1.9,3.7,2.2,4.9,2.2c0.4,0,0.9-0.2,1.1-0.5
			c1.9-2.4,4.6-4.3,7.7-5.8c0.5-0.2,0.3-0.9-0.3-0.9C203.9,213.1,199.3,213.6,194.8,214z"/>
		<path class="st14" d="M194,198.5c0.3,2.5-3,3.7-3.6,0.9c-0.4-1.3,0.6-2.9,1.9-3C193.1,196.8,194.2,197.4,194,198.5z"/>
	</g>
	<g>
		<path class="st15" d="M213.7,190.1c2,4.5,1.7,11.7,1.8,15.5c-0.1,1.2-0.9,2.6-2,3.1c-1.1,0.6-2.3,0.7-3.4,0.3
			c-0.5-0.2-1-0.2-1.6-0.3c-2.7-0.5-4-4.2-4.7-6.6c-0.4-1.7-1-4.2-1.2-6.8C206,192.9,209.7,190.8,213.7,190.1z"/>
		<path class="st14" d="M206.2,199.5c-0.3,2.5,3,3.7,3.6,0.9c0.4-1.3-0.6-2.9-1.9-3C207.1,197.8,206,198.4,206.2,199.5z"/>
	</g>
</g>
<g>
	<g>
		<path class="st0" d="M347.2,130.6c-7.7-1.8-18.8,3.4-16.1,12.4l-0.9,2.7c-11.9,0.4-12.4,21.5,1.2,22.2c3.7-0.5,0.7,8.6,5.4,6.8
			c1.4,9.2,14.2,13,20.7,6.9c8.1,5.1,15.4-6.2,16.3-13.6c11.4,9,11.5-18.4-1.9-13.2c6.4-5.1,3.9-15.9-5.2-13.3
			c6.6-16.1-22.5-19-20.8-3.8"/>
		<g>
			<path class="st1" d="M347.9,128.2c-9.4-2.1-22.3,4.3-19.2,15.5c0-0.4,0-0.9,0-1.3c-0.3,0.9-0.6,1.8-0.9,2.7
				c0.8-0.6,1.6-1.2,2.4-1.8c-17.1,1.3-13.3,28.2,1.3,27.2c0,0-0.9-0.6-0.5-0.3c-0.4-0.3-0.3-0.3-0.1-0.1c0.1,2.7,1.8,9.1,6.7,7.1
				c-1-0.6-2.1-1.2-3.1-1.7c1.9,11.1,16.9,15.2,24.9,8c-1,0.1-2,0.3-3,0.4c10.4,6.3,18.9-6.8,20.1-15.7c-1.4,0.6-2.8,1.2-4.3,1.8
				c17.1,12.1,16.4-24.3-0.8-17.4c0.8,1.4,1.6,2.8,2.4,4.2c8.3-6.1,3.5-21.1-7.6-17.5c1,1,2.1,2.1,3.1,3.1
				c8.1-18.4-27.2-24-25.8-4.4c0.1,3.2,5,3.3,5,0c-0.2-1.4,0-2.1,0.2-3.2c0-0.2,0.4-0.9,0.1-0.3c1.7-5.2,12.4-4.7,15.3-0.8
				c0.4,0.5,0.7,1,0.9,1.5c-0.3-0.7,0.3,1.1,0.3,1.3c-0.1-0.8,0,1.3,0,1.5c-3.4,11,4.8,2.6,7.5,7.9c1.1,2.6-0.1,5.5-2.4,7.4
				c-1.9,1.6,0.1,5,2.4,4.2c0.6-0.3,1.4-0.4,2.1-0.6c-1,0,1.9,0.1,0.8,0c0.4,0.1,0.8,0.2,1.2,0.3c1.2,0.4,3.2,3.5,2.9,6.7
				c0,0.1-0.1,1.6,0,0.9c-0.2,1.5-0.7,2.2-1.2,2.7c-0.4,0.5,0.2-0.3,0,0c-0.1,0.1-0.7,0.4-0.2,0.2c0.5-0.2-0.2,0.1-0.3,0.1
				c-0.3-0.1,0.2,0,0.3,0c-0.2,0-1.2-0.1-0.4,0c-2.5-1-5.9-3.5-6.7,0.7c0-0.3,0,0.2-0.1,0.3c-0.9,5.4-5.9,14.8-12.4,11.1
				c-1-0.6-2.2-0.4-3,0.4c-5.3,4.8-15.3,1.6-16.6-5.8c-0.3-1.6-2.4-2.2-3.7-1.5c0.1-0.1,0.5,0,0.1,0c0.6,0.1,0.4,0.1,0.2,0
				c0.1,0,0.8,0.6,0.5,0.3c0-0.9-0.9-8.5-5.8-7.3c0-0.1-1.8-0.2-2.2-0.6c0.6,0.3-1.7-1-1.5-0.9c0.3,0.2-0.3-0.2-0.2-0.2
				c-1.1-1-1.4-1.6-2.2-3c-0.1-0.1-0.2-0.6,0-0.1c-1.4-3.4-0.3-7.9,1.2-9.8c1.3-1.4,2.5-1.9,4.4-2.4c5,0.3,2.8-6.9,3.9-10.1
				c1.7-4,8.4-6.3,12.9-5.1C349.7,133.8,351,128.9,347.9,128.2L347.9,128.2z"/>
		</g>
	</g>
	<g>
		<path class="st2" d="M336.9,144.9c-1.5,4.7-3.7,16,0.2,18.6c8.3,3,10.5-6.8,11-13.4C344.6,147.7,340.9,145.6,336.9,144.9z"/>
		<path class="st3" d="M345.2,169.8c-3.3,2.1,3.3,6.7,5.1,5.9c2.9-1.7,5-4.9,8.8-6.3C360.5,167.2,347.1,170.1,345.2,169.8z"/>
		<path class="st0" d="M344.4,154.3c0.3,2.5-3,3.7-3.6,0.9c-0.4-1.3,0.6-2.9,1.9-3C343.5,152.6,344.6,153.2,344.4,154.3z"/>
	</g>
	<g>
		<path class="st2" d="M364.1,145.9c1.5,4.7,3.7,16-0.2,18.6c-8.2,2.8-10.4-6.8-10.9-13.4C356.4,148.7,360.1,146.6,364.1,145.9z"/>
		<path class="st0" d="M356.6,155.2c-0.3,2.5,3,3.7,3.6,0.9c0.4-1.3-0.6-2.9-1.9-3C357.5,153.6,356.4,154.2,356.6,155.2z"/>
	</g>
</g>
<g>
	<g>
		<path class="st0" d="M196.7,174.7c-7.7-1.8-18.8,3.4-16.1,12.4l-0.9,2.7c-11.9,0.4-12.4,21.5,1.2,22.2c3.7-0.5,0.7,8.6,5.4,6.8
			c1.4,9.2,14.2,13,20.7,6.9c8.1,5.1,15.4-6.2,16.3-13.6c11.4,9,11.5-18.4-1.9-13.2c6.4-5.1,3.9-15.9-5.2-13.3
			c6.6-16.1-22.5-19-20.8-3.8"/>
		<g>
			<path class="st1" d="M197.4,172.3c-9.4-2.1-22.3,4.3-19.2,15.5c0-0.4,0-0.9,0-1.3c-0.3,0.9-0.6,1.8-0.9,2.7
				c0.8-0.6,1.6-1.2,2.4-1.8c-17.1,1.3-13.3,28.2,1.3,27.2c0,0-0.9-0.6-0.5-0.3c-0.4-0.3-0.3-0.3-0.1-0.1c0.1,2.7,1.8,9.1,6.7,7.1
				c-1-0.6-2.1-1.2-3.1-1.7c1.9,11.1,16.9,15.2,24.9,8c-1,0.1-2,0.3-3,0.4c10.4,6.3,18.9-6.8,20.1-15.7c-1.4,0.6-2.8,1.2-4.3,1.8
				c17.1,12.1,16.4-24.3-0.8-17.4c0.8,1.4,1.6,2.8,2.4,4.2c8.3-6.1,3.5-21.1-7.6-17.5c1,1,2.1,2.1,3.1,3.1
				c8.1-18.4-27.2-24-25.8-4.4c0.1,3.2,5,3.3,5,0c-0.2-1.4,0-2.1,0.2-3.2c0-0.2,0.4-0.9,0.1-0.3c1.7-5.2,12.4-4.7,15.3-0.8
				c0.4,0.5,0.7,1,0.9,1.5c-0.3-0.7,0.3,1.1,0.3,1.3c-0.1-0.8,0,1.3,0,1.5c-3.4,11,4.8,2.6,7.5,7.9c1.1,2.6-0.1,5.5-2.4,7.4
				c-1.9,1.6,0.1,5,2.4,4.2c0.6-0.3,1.4-0.4,2.1-0.6c-1,0,1.9,0.1,0.8,0c0.4,0.1,0.8,0.2,1.2,0.3c1.2,0.4,3.2,3.5,2.9,6.7
				c0,0.1-0.1,1.6,0,0.9c-0.2,1.5-0.7,2.2-1.2,2.7c-0.4,0.5,0.2-0.3,0,0c-0.1,0.1-0.7,0.4-0.2,0.2c0.5-0.2-0.2,0.1-0.3,0.1
				c-0.3-0.1,0.2,0,0.3,0c-0.2,0-1.2-0.1-0.4,0c-2.5-1-5.9-3.5-6.7,0.7c0-0.3,0,0.2-0.1,0.3c-0.9,5.4-5.9,14.8-12.4,11.1
				c-1-0.6-2.2-0.4-3,0.4c-5.3,4.8-15.3,1.6-16.6-5.8c-0.3-1.6-2.4-2.2-3.7-1.5c0.1-0.1,0.5,0,0.1,0c0.6,0.1,0.4,0.1,0.2,0
				c0.1,0,0.8,0.6,0.5,0.3c0-0.9-0.9-8.5-5.8-7.3c0-0.1-1.8-0.2-2.2-0.6c0.6,0.3-1.7-1-1.5-0.9c0.3,0.2-0.3-0.2-0.2-0.2
				c-1.1-1-1.4-1.6-2.2-3c-0.1-0.1-0.2-0.6,0-0.1c-1.4-3.4-0.3-7.9,1.2-9.8c1.3-1.4,2.5-1.9,4.4-2.4c5,0.3,2.8-6.9,3.9-10.1
				c1.7-4,8.4-6.3,12.9-5.1C199.2,177.9,200.5,173,197.4,172.3L197.4,172.3z"/>
		</g>
	</g>
	<g>
		<path class="st2" d="M186.4,189c-1.5,4.7-3.7,16,0.2,18.6c8.3,3,10.5-6.8,11-13.4C194.1,191.8,190.4,189.7,186.4,189z"/>
		<path class="st3" d="M194.7,213.9c-3.3,2.1,3.3,6.7,5.1,5.9c2.9-1.7,5-4.9,8.8-6.3C210,211.2,196.6,214.2,194.7,213.9z"/>
		<path class="st0" d="M193.9,198.4c0.3,2.5-3,3.7-3.6,0.9c-0.4-1.3,0.6-2.9,1.9-3C193,196.7,194.1,197.3,193.9,198.4z"/>
	</g>
	<g>
		<path class="st2" d="M213.6,190c1.5,4.7,3.7,16-0.2,18.6c-8.2,2.8-10.4-6.8-10.9-13.4C205.9,192.8,209.6,190.7,213.6,190z"/>
		<path class="st0" d="M206.1,199.3c-0.3,2.5,3,3.7,3.6,0.9c0.4-1.3-0.6-2.9-1.9-3C207,197.7,205.9,198.3,206.1,199.3z"/>
	</g>
</g>
<g>
	<g>
		<path class="st0" d="M1110.2,5.1c-7.7-1.8-18.8,3.4-16.1,12.4l-0.9,2.7c-11.9,0.4-12.4,21.5,1.2,22.2c3.7-0.5,0.7,8.6,5.4,6.8
			c1.4,9.2,14.2,13,20.7,6.9c8.1,5.1,15.4-6.2,16.3-13.6c11.1,9.1,11.8-18.2-1.9-13.2c6.4-5.3,4-15.8-5.2-13.3
			c6.4-16.9-22.8-18.3-20.8-3.8"/>
		<g>
			<path class="st1" d="M1110.9,2.7c-9.4-2.1-22.3,4.3-19.2,15.5c0-0.4,0-0.9,0-1.3c-0.3,0.9-0.6,1.8-0.9,2.7
				c0.8-0.6,1.6-1.2,2.4-1.8c-7.7,0.3-12.2,7.7-11.4,15c0.4,3.5,1.9,7,4.7,9.3c1.5,1.2,3.3,2.1,5.2,2.6c1,0.2,2,0.4,3,0.3
				c0.3,0-0.6-0.2-0.2,0c0,0-0.9-0.6-0.5-0.3c-0.4-0.3-0.3-0.3-0.1-0.1c0,0-0.1-0.5,0,0.1c0.4,1.6,0.4,3.4,1.2,4.9
				c1,2.1,3.3,2.9,5.5,2.1c-1-0.6-2.1-1.2-3.1-1.7c1.9,11.1,16.9,15.2,24.9,8c-1,0.1-2,0.3-3,0.4c10.4,6.3,18.9-6.8,20.1-15.7
				c-1.4,0.6-2.8,1.2-4.3,1.8c2.1,1.7,4.8,3.2,7.6,2.4c2.4-0.7,3.8-2.8,4.5-5.1c1.4-4.4,0.2-10.4-3.5-13.4c-2.7-2.2-6.2-2.4-9.4-1.3
				c0.8,1.4,1.6,2.8,2.4,4.2c3.4-2.9,5.3-7.9,3.8-12.2c-1.7-4.9-6.7-6.5-11.4-5.3c1,1,2.1,2.1,3.1,3.1c1.2-3.2,1.4-6.8-0.1-10
				c-1.2-2.5-3.4-4.4-5.9-5.5c-5.3-2.3-12.2-1.9-16.6,2c-2.5,2.3-3.6,5.7-3.2,9c0.2,1.3,1,2.5,2.5,2.5c1.2,0,2.7-1.2,2.5-2.5
				c-0.1-0.6-0.1-1.2-0.1-1.8c0-0.1,0-0.3,0-0.4c0-0.6-0.1,0.4,0,0c0.1-0.3,0.1-0.6,0.2-1c0.1-0.2,0.3-0.7,0-0.2
				c0.1-0.2,0.2-0.5,0.3-0.7c0.1-0.2,0.3-0.4,0.4-0.6c0.2-0.4,0,0.1-0.1,0.1c0.1-0.1,0.2-0.3,0.3-0.4c0.2-0.2,0.4-0.4,0.6-0.6
				c0.1-0.1,0.2-0.1,0.3-0.2c0,0-0.5,0.3-0.1,0.1c0.5-0.3,1-0.6,1.5-0.9s-0.1,0,0.2-0.1c0.2-0.1,0.5-0.2,0.8-0.3
				c0.5-0.2,1.1-0.3,1.7-0.4c0.2,0,0.3,0,0.5-0.1c0.4-0.1-0.5,0-0.1,0c0.3,0,0.6-0.1,0.8-0.1c0.6,0,1.2,0,1.9,0c0.2,0,0.5,0,0.7,0.1
				c-0.7-0.1,0.2,0,0.3,0.1c0.6,0.1,1.1,0.3,1.7,0.4c0.3,0.1,0.5,0.2,0.8,0.3c0.4,0.1-0.5-0.3,0,0c0.1,0.1,0.2,0.1,0.3,0.2
				c0.5,0.3,1,0.6,1.4,0.9c0.5,0.3-0.3-0.3,0.2,0.2c0.2,0.2,0.4,0.3,0.6,0.5s0.3,0.4,0.5,0.6c-0.4-0.5,0.1,0.2,0.2,0.3
				c0.2,0.2,0.3,0.5,0.4,0.8c0.3,0.5-0.1-0.4,0,0c0.1,0.2,0.1,0.3,0.2,0.5c0.1,0.3,0.1,0.6,0.2,0.9c0,0.2,0.1,0.6,0,0
				c0,0.2,0,0.4,0,0.6c0,0.3,0,0.7,0,1c0,0.1,0,0.3,0,0.4c0,0.6,0.1-0.3,0,0.2c-0.2,0.9-0.4,1.8-0.7,2.6c-0.7,1.9,1.4,3.5,3.1,3.1
				c0.9-0.2,1.4-0.3,2.3-0.3c0.8,0-0.2-0.1,0.2,0c0.2,0,0.4,0.1,0.6,0.1s0.3,0.1,0.5,0.1c-0.3-0.1,0,0,0.1,0.1
				c0.2,0.1,0.8,0.6,0.5,0.3c0.1,0.1,0.6,0.6,0.5,0.5s0.3,0.5,0.4,0.7c0.3,0.6-0.1-0.3,0.1,0.1c0.1,0.2,0.1,0.3,0.2,0.5
				c0,0.1,0.1,0.3,0.1,0.4c0.1,0.5,0-0.2,0,0.1c0,0.3,0,0.7,0,1.1c0,0.2,0,0.3,0,0.5c-0.1,0.7,0.1-0.2,0,0.2
				c-0.1,0.4-0.2,0.7-0.3,1.1c-0.4,1.2-1.3,2.5-2.5,3.6c-1.9,1.6,0.1,5,2.4,4.2c0.6-0.2,1.1-0.3,1.7-0.5c0.4-0.1-0.4,0,0.3,0
				c0.3,0,0.6,0,0.8,0c0.1,0,0.2,0,0.4,0c0.3,0-0.5-0.1-0.2,0c0.2,0.1,0.4,0.1,0.6,0.2c0.3,0.1,0.5,0.2,0.1,0
				c0.2,0.1,0.5,0.2,0.7,0.4c0.2,0.1,0.7,0.5,0.1,0.1c0.2,0.1,0.3,0.3,0.5,0.4c0.1,0.1,0.2,0.3,0.4,0.4c0.4,0.3-0.2-0.3,0.1,0.2
				c0.2,0.4,0.4,0.7,0.7,1.1c0.1,0.1,0.3,0.8,0.1,0.2c0.1,0.2,0.2,0.5,0.2,0.7c0.1,0.4,0.2,0.9,0.3,1.3c0,0.2,0.1,0.4,0.1,0.6
				c-0.1-0.8,0,0.1,0,0.3c0,0.4,0,0.9,0,1.3c0,0.2,0,0.4,0,0.6c0,0.7,0.1-0.1,0,0.2c-0.1,0.4-0.2,0.8-0.3,1.2
				c-0.1,0.2-0.1,0.4-0.2,0.5c-0.1,0.3,0.3-0.5-0.1,0.1c-0.1,0.2-0.2,0.3-0.3,0.5c-0.3,0.5-0.1,0.1,0,0c-0.1,0-0.2,0.3-0.3,0.3
				c0,0-0.2,0.1-0.2,0.2c0.4-0.6,0.4-0.2,0.1-0.1c-0.1,0-0.7,0.3-0.2,0.1c0.5-0.2-0.2,0.1-0.3,0c-0.3,0,0.7,0,0,0s0.2,0.1-0.1,0
				c-0.2-0.1-0.5-0.1-0.7-0.2c-0.1,0-0.4-0.2,0.1,0.1c-0.1-0.1-0.3-0.1-0.4-0.2c-0.3-0.1-0.5-0.3-0.7-0.4c-0.1-0.1-0.2-0.2-0.3-0.2
				c-0.4-0.3,0.3,0.2-0.2-0.2c-1.8-1.5-4-0.4-4.3,1.8c0-0.3,0,0.2-0.1,0.3c0,0.2-0.1,0.5-0.1,0.7c-0.1,0.4-0.2,0.9-0.3,1.3
				c-0.3,0.9-0.6,1.7-0.9,2.4c-0.8,1.7-1.8,3.4-3.1,4.8c-1.1,1.2-2.4,2.2-3.7,2.6c-1.5,0.5-2.7,0.2-4.3-0.7c-1-0.6-2.2-0.4-3,0.4
				c-5.3,4.8-15.3,1.6-16.6-5.8c-0.2-1.3-1.9-2.2-3.1-1.7c-0.2,0.1-0.5,0.1-0.6,0.2c0.1-0.1,0.5,0,0.1,0c0.6,0.1,0.4,0.1,0.2,0
				c0.1,0,0.8,0.6,0.5,0.3c0.4,0.4,0.1,0.2,0-0.1c0.2,0.8-0.1-0.4-0.1-0.5c-0.3-1.2-0.3-2.4-0.7-3.5c-0.6-1.8-1.9-3.1-3.9-3.2
				c-0.4,0-0.7,0-1.1,0c0.4,0-0.4-0.1-0.6-0.1c-0.4-0.1-0.8-0.2-1.2-0.3c-0.1,0-0.3-0.1-0.4-0.2c0.5,0.2-0.2-0.1-0.3-0.2
				c-0.3-0.2-0.6-0.3-0.9-0.5c0,0-0.6-0.4-0.3-0.2c0.3,0.2-0.3-0.2-0.2-0.2c-0.2-0.2-0.5-0.4-0.7-0.7c-0.1-0.1-0.2-0.3-0.4-0.4
				c-0.4-0.5,0.3,0.4-0.1-0.2s-0.7-1.1-1-1.7c-0.1-0.1-0.2-0.6,0-0.1c-0.1-0.1-0.1-0.3-0.1-0.4c-0.1-0.4-0.2-0.7-0.3-1.1
				c-0.1-0.3-0.1-0.6-0.2-0.9c-0.1-0.7,0,0.5,0-0.2c0-0.1,0-0.3,0-0.4c-0.1-0.7-0.1-1.4,0-2.1c0-0.2,0-0.4,0.1-0.5
				c0-0.4-0.1,0.6,0-0.1c0.1-0.3,0.1-0.6,0.2-0.9s0.2-0.6,0.3-0.9c0.1-0.2,0.1-0.3,0.2-0.5c0.2-0.6-0.1,0.2,0.1-0.3
				c0.2-0.3,0.3-0.6,0.5-0.9c0.1-0.1,0.2-0.3,0.3-0.4c0.1-0.1,0.5-0.7,0.1-0.2c0.2-0.3,0.4-0.5,0.7-0.7c0.1-0.1,0.2-0.2,0.4-0.3
				c0.1-0.1,0.6-0.4,0.3-0.2c-0.1,0.1,0.6-0.3,0.8-0.5c0.1-0.1,0.3-0.2,0.5-0.2c0.1-0.1-0.3,0.1,0.2-0.1c0.4-0.1,0.7-0.2,1.1-0.3
				c0.1,0,0.3-0.1,0.4-0.1c-0.6,0.1,0.4,0,0.5,0c1.1,0,2.1-0.7,2.4-1.8c0.2-0.7,0.5-1.5,0.7-2.2c0.3-1.1-0.1-2.3-0.1-3.1
				c-0.1-1.2-0.1-1.8,0.4-3c-0.1,0.4,0.2-0.3,0.2-0.4c0.1-0.2,0.3-0.5,0.4-0.7c0.2-0.2,0.4-0.5,0.8-0.9c1.4-1.4,3.2-2.3,5.2-2.9
				c2.1-0.6,4.3-0.7,6.3-0.2C1112.7,8.2,1114,3.4,1110.9,2.7L1110.9,2.7z"/>
		</g>
	</g>
	<g>
		<path class="st2" d="M1099.9,19.4c-2,4.5-1.7,11.7-1.8,15.5c0.1,1.2,0.9,2.6,2,3.1c0.9,0.4,1.7,0.5,2.8,0.5c2.4,0,4.6-1.3,5.7-3.5
			c0.6-1.2,0.9-2.5,1.3-3.6c0.4-1.7,1-4.2,1.2-6.8C1107.6,22.2,1103.9,20.1,1099.9,19.4z"/>
		<path class="st3" d="M1108.2,44.3c-0.6,0.1-1,0.6-0.9,1.3c0.1,0.7,0.5,1.6,1.1,2.4c1.5,1.9,3.7,2.2,4.9,2.2c0.4,0,0.9-0.2,1.1-0.5
			c1.9-2.4,4.6-4.3,7.7-5.8c0.5-0.2,0.3-0.9-0.3-0.9C1117.3,43.4,1112.7,43.8,1108.2,44.3z"/>
		<path class="st0" d="M1107.4,28.7c0.3,2.5-3,3.7-3.6,0.9c-0.4-1.3,0.6-2.9,1.9-3C1106.5,27.1,1107.6,27.7,1107.4,28.7z"/>
	</g>
	<g>
		<path class="st2" d="M1127,20.4c2,4.5,1.7,11.7,1.8,15.5c-0.1,1.2-0.9,2.6-2,3.1c-1.1,0.6-2.3,0.7-3.4,0.3c-0.5-0.2-1-0.2-1.6-0.3
			c-2.7-0.5-4-4.2-4.7-6.6c-0.4-1.7-1-4.2-1.2-6.8C1119.4,23.1,1123,21.1,1127,20.4z"/>
		<path class="st0" d="M1119.6,29.7c-0.3,2.5,3,3.7,3.6,0.9c0.4-1.3-0.6-2.9-1.9-3C1120.4,28.1,1119.4,28.6,1119.6,29.7z"/>
	</g>
</g>
</svg>
