<?xml version="1.0" encoding="utf-8"?>
<!-- Generator: Adobe Illustrator 27.7.0, SVG Export Plug-In . SVG Version: 6.00 Build 0)  -->
<svg version="1.1" id="Layer_1" xmlns="http://www.w3.org/2000/svg" xmlns:xlink="http://www.w3.org/1999/xlink" x="0px" y="0px"
	 viewBox="0 0 101.3 94.8" style="enable-background:new 0 0 101.3 94.8;" xml:space="preserve">
<style type="text/css">
	.st0{fill:#A1CF6D;}
	.st1{fill:#FFFFFF;stroke:#000000;stroke-width:4.6017;stroke-miterlimit:10;}
	.st2{stroke:#000000;stroke-miterlimit:10;}
</style>
<g>
	<g>
		<g>
			<path class="st0" d="M43.6,7C31.4,4.1,13.8,12.3,18,26.7c0,0-1.3,4.3-1.3,4.3C-2.1,31.5-3,65,18.6,66c5.8-0.8,1.1,13.7,8.6,10.7
				C29.4,91.3,49.6,97.3,60,87.6c12.8,8,24.4-9.8,25.9-21.5c7.9,7.8,14.3-0.2,12.9-9.2c0.7-9.5-7.1-14-15.8-11.6
				c10.1-8.8,6.6-24.7-8.2-21c9.7-28.1-37-27.7-32.9-6"/>
			<g>
				<path d="M44.2,4.6c-10.5-2.4-24.7,2-28.5,12.9c-1.1,3.2-1,6.6-0.1,9.8c0-0.4,0-0.9,0-1.3c-0.5,1.4-0.9,2.8-1.3,4.3
					c0.8-0.6,1.6-1.2,2.4-1.8c-5.5,0.2-10.4,3-13.4,7.6c-2.7,4.2-3.8,9.6-3.2,14.6c0.6,5.3,2.9,10.4,7.2,13.8
					c2.3,1.8,4.9,3.1,7.8,3.6c0.8,0.2,1.6,0.3,2.4,0.4c0.4,0,0.7,0.1,1.1,0.1c0.1,0,0.2,0,0.3,0c0.4,0,0.2,0.1-0.1,0
					c0.6,0.2-0.3-0.2,0,0c0.3,0.2-0.4-0.4,0,0c-0.6-0.5-0.1,0,0,0.1c0,0,0.3,0.5,0.1,0.1c-0.2-0.4,0,0.1,0,0.2
					c0.7,2.3,0.6,4.7,1.4,6.9c1.2,3.3,4.1,4.7,7.4,3.5c-1-0.6-2.1-1.2-3.1-1.7C26.8,90,40.9,97,52.7,94.2c3.4-0.8,6.5-2.5,9.1-4.9
					c-1,0.1-2,0.3-3,0.4c5.1,3.1,11.2,3,16.2-0.3c4.9-3.3,8.5-8.4,10.8-13.8c1.3-3.1,2.2-6.2,2.7-9.5c-1.4,0.6-2.8,1.2-4.3,1.8
					c2.8,2.7,6.7,4.9,10.6,3.4c3.4-1.3,5.6-4.7,6.3-8.1c0.5-2.2,0.3-4.1,0.2-6.3c-0.1-1.8,0-3.6-0.5-5.5c-1-3.3-3.2-6.1-6.3-7.7
					c-3.8-1.9-8.1-2-12.2-0.9c0.8,1.4,1.6,2.8,2.4,4.2c3.9-3.5,6.6-8.6,6.5-13.9c-0.2-5-2.9-9.3-7.6-11.1c-3-1.1-6.4-0.9-9.5-0.1
					c1,1,2.1,2.1,3.1,3.1c1.7-5,2.1-10.4-0.2-15.2c-1.9-3.9-5.5-6.6-9.5-8.2c-7.7-3-17.9-1.9-24,3.9C39.7,9,38.5,14,39.4,19
					c0.2,1.3,1.9,2.1,3.1,1.7c1.4-0.4,2-1.7,1.7-3.1c0-0.1-0.1-1-0.1-0.3c0-0.2,0-0.4-0.1-0.7c0-0.5,0-1,0-1.5c0-0.2,0-0.4,0-0.6
					c0.1-0.7-0.1,0.2,0-0.2c0.1-0.4,0.2-0.9,0.3-1.3c0.1-0.4,0.2-0.7,0.4-1.1c-0.2,0.5,0,0.1,0.1-0.1c0.1-0.2,0.2-0.4,0.3-0.6
					c0.2-0.3,0.4-0.7,0.7-1c0.3-0.5-0.2,0.3,0-0.1c0.2-0.2,0.3-0.4,0.5-0.5c0.3-0.3,0.5-0.5,0.8-0.8c0.2-0.1,0.3-0.3,0.5-0.4
					c0.4-0.4-0.3,0.2,0.1-0.1c0.7-0.5,1.4-1,2.2-1.4c0.4-0.2,0.7-0.4,1.1-0.5c-0.6,0.3,0,0,0.2-0.1c0.2-0.1,0.4-0.2,0.7-0.2
					c0.9-0.3,1.8-0.5,2.7-0.7c0.4-0.1,0.9-0.2,1.3-0.2c-0.5,0.1-0.1,0,0.1,0c0.3,0,0.5-0.1,0.8-0.1c0.9-0.1,1.8-0.1,2.7,0
					c0.5,0,0.9,0,1.4,0.1c0.2,0,0.4,0,0.6,0.1c-0.7-0.1,0.2,0,0.3,0.1c0.9,0.2,1.8,0.4,2.7,0.6c0.4,0.1,0.8,0.3,1.2,0.4
					c0.1,0.1,0.9,0.4,0.2,0.1c0.2,0.1,0.4,0.2,0.6,0.3C67.5,7.1,68.3,7.5,69,8c0.2,0.1,0.3,0.2,0.5,0.4c-0.4-0.3-0.1-0.1,0.1,0.1
					c0.3,0.3,0.7,0.6,1,0.9c0.3,0.3,0.6,0.6,0.8,1c-0.3-0.4-0.1-0.1,0.1,0.1c0.1,0.2,0.3,0.4,0.4,0.6c0.3,0.4,0.5,0.9,0.7,1.3
					c0.3,0.5-0.1-0.4,0.1,0.3c0.1,0.2,0.2,0.5,0.2,0.7c0.2,0.5,0.3,1,0.4,1.5c0,0.2,0.1,1,0.1,0.4c0,0.3,0.1,0.5,0.1,0.8
					c0,0.6,0,1.2,0,1.9c0,0.3,0,0.6-0.1,0.9c0,0.1,0,0.3,0,0.4c0-0.4,0-0.1,0,0.1c-0.3,1.5-0.6,2.9-1.1,4.3
					c-0.6,1.9,1.3,3.5,3.1,3.1c1.4-0.3,2.7-0.5,4.2-0.4c0.6,0,0.9,0.1,1.6,0.3c0.3,0.1,0.6,0.2,0.9,0.3c-0.4-0.2,0.2,0.1,0.3,0.1
					c0.3,0.1,0.5,0.3,0.8,0.4c0.1,0.1,0.2,0.2,0.4,0.2c-0.2-0.2-0.2-0.2,0,0c0.4,0.3,0.7,0.7,1.1,1.1c-0.4-0.4,0.2,0.3,0.2,0.4
					c0.2,0.2,0.3,0.5,0.4,0.7c0.1,0.1,0.1,0.3,0.2,0.4c-0.1-0.3-0.1-0.3,0,0c0.1,0.2,0.2,0.5,0.2,0.7c0.4,1.3,0.4,1.5,0.3,3
					c0,0.3,0,0.6-0.1,0.8c0,0.3,0,0.3,0,0.1c0,0.2-0.1,0.3-0.1,0.5c-0.1,0.6-0.3,1.2-0.5,1.8c-0.2,0.8-0.3,0.8-0.6,1.5
					c-0.3,0.6-0.6,1.2-1,1.8c-0.7,1.1-1.7,2.1-2.8,3.1c-1.9,1.7,0.1,4.8,2.4,4.2c2.6-0.7,5-0.7,7.5,0c1.9,0.6,3.5,2.1,4.4,4
					c0.4,0.8,0.7,2.2,0.8,3.2c0,0.9,0,1.7,0.1,2.6c0.1,0.7,0.1,1.5,0.1,2.2c0,2.4-0.8,4.9-2.5,6.3c-0.5,0.5-1.5,0.7-2.2,0.6
					c-1.6-0.2-3-1.3-4.1-2.4c-1.7-1.6-4-0.3-4.3,1.8c0-0.3-0.1,0.6-0.1,0.7c-0.1,0.4-0.1,0.7-0.2,1.1c-0.2,0.8-0.4,1.5-0.6,2.3
					c-0.4,1.4-0.9,2.8-1.6,4.1c-1.4,2.9-3,5.7-5.2,8c-1.9,2.1-4.2,3.8-6.8,4.5c-1.1,0.3-2.4,0.4-3.3,0.3c-1.6-0.2-2.9-0.8-4.3-1.6
					c-1-0.6-2.2-0.4-3,0.4c-3.6,3.3-8.3,4.4-13.2,3.9c-0.8-0.1-2.2-0.4-3.3-0.7c-1.3-0.4-2.1-0.7-3.3-1.3c-2.3-1.2-4-2.4-5.6-4.4
					c-1.7-2-2.8-4.5-3.2-7.3c-0.2-1.3-1.9-2.2-3.1-1.7c-0.3,0.1-0.6,0.2-0.9,0.3c-0.1,0-0.5,0,0.1,0c-0.1,0-0.3,0-0.3,0
					c-0.4-0.1,0.6,0.2,0,0c-0.6-0.1,0.5,0.2-0.1-0.1c0,0,0.5,0.4,0.2,0.1c-0.1-0.1-0.2-0.4,0.1,0.2c-0.1-0.1-0.2-0.3-0.3-0.4
					c-0.3-0.5,0.1,0.3,0-0.1c-0.1-0.3-0.2-0.5-0.2-0.8c-0.5-1.9-0.5-3.9-1.1-5.7c-0.7-2.4-2.4-4.3-5.1-4.3c-1.5,0-2-0.1-3.4-0.4
					c-0.6-0.1-1.1-0.3-1.7-0.5c-0.1-0.1-0.3-0.1-0.4-0.2c0.4,0.2,0,0,0,0c-0.3-0.1-0.6-0.3-0.9-0.5c-0.5-0.3-1-0.5-1.4-0.9
					c-0.1-0.1-0.7-0.6-0.4-0.3c-0.2-0.2-0.4-0.4-0.7-0.6c-0.4-0.4-0.8-0.8-1.2-1.2c-0.2-0.2-0.3-0.4-0.5-0.6c-0.2-0.3,0.2,0.3,0,0
					C8.2,58.3,8.1,58.2,8,58c-0.7-0.9-1.2-1.9-1.7-3c-0.2-0.4,0.1,0.2-0.1-0.3C6.2,54.5,6.1,54.2,6,54c-0.2-0.5-0.3-1.1-0.5-1.6
					c-0.1-0.5-0.2-1.1-0.3-1.6c0-0.1,0-0.3-0.1-0.4c0.1,0.5,0,0.1,0,0c0-0.3-0.1-0.6-0.1-1c-0.1-1.1-0.1-2.2,0-3.3
					c0-0.3,0.1-0.6,0.1-0.9c-0.1,0.6,0-0.2,0.1-0.4c0.1-0.6,0.2-1.1,0.4-1.7c0.1-0.5,0.3-1,0.5-1.5c0.1-0.3,0.2-0.5,0.3-0.8
					c0.1-0.3,0,0.1-0.1,0.1c0.1-0.2,0.2-0.4,0.3-0.6c0.3-0.5,0.5-1,0.8-1.5c0.2-0.3,0.3-0.5,0.5-0.8C8,38,8.1,37.9,8.2,37.8
					c0.3-0.4-0.2,0.2,0-0.1c0.4-0.4,0.7-0.9,1.1-1.3c0.2-0.2,0.5-0.5,0.7-0.7c0.1-0.1,0.2-0.1,0.2-0.2c0.2-0.2-0.3,0.2,0.1,0
					c0.5-0.3,1-0.7,1.5-1c0.2-0.1,0.8-0.4,0.6-0.3c-0.2,0.1,0.5-0.2,0.7-0.3c0.6-0.2,1.2-0.4,1.8-0.5c0.1,0,0.3-0.1,0.4-0.1
					c0.3-0.1-0.4,0,0.1,0c0.4,0,0.8-0.1,1.2-0.1c1.1,0,2.1-0.8,2.4-1.8c0.3-0.9,0.5-1.7,0.8-2.6c0.4-1.3,0.7-2.2,0.4-3.6
					c-0.4-1.4-0.4-2.5-0.3-4c0.1-0.7,0.6-2.6,0.9-3.2c1.2-2.4,2.9-4.2,5.1-5.6c2.5-1.6,4.9-2.5,7.8-3.1c2.9-0.6,6.3-0.7,9.2,0
					C46,10.1,47.4,5.3,44.2,4.6L44.2,4.6z"/>
			</g>
		</g>
		<g>
			<path class="st1" d="M27.3,29.6c-3.1,7.2-2.7,18.4-2.9,24.6c0.1,1.8,1.5,4.2,3.2,4.9c1.4,0.7,2.7,0.8,4.4,0.8
				c3.8,0,7.4-2.1,9-5.5c0.9-1.9,1.4-3.9,2-5.8c0.6-2.6,1.5-6.7,1.9-10.8C39.5,34,33.6,30.7,27.3,29.6z"/>
			<path class="st2" d="M40.4,69c-1,0.1-1.7,1-1.5,2c0.2,1.1,0.7,2.5,1.8,3.8c2.3,2.9,5.9,3.4,7.7,3.5c0.7,0,1.4-0.3,1.8-0.8
				c3-3.8,7.3-6.7,12.1-9.2c0.7-0.4,0.4-1.5-0.4-1.4C54.7,67.5,47.5,68.2,40.4,69z"/>
			<path class="st0" d="M39.1,44.4c0.4,3.9-4.7,5.8-5.7,1.5c-0.7-2.1,0.9-4.6,3-4.7C37.7,41.8,39.4,42.7,39.1,44.4z"/>
		</g>
		<g>
			<path class="st1" d="M70.2,31.1c3.1,7.2,2.7,18.4,2.9,24.6c-0.1,1.8-1.5,4.2-3.2,4.9c-1.8,0.9-3.7,1.1-5.4,0.5
				c-0.8-0.3-1.7-0.4-2.5-0.5c-4.3-0.8-6.3-6.6-7.4-10.4c-0.6-2.6-1.5-6.7-1.9-10.8C58.1,35.5,63.9,32.2,70.2,31.1z"/>
			<path class="st0" d="M58.4,45.9c-0.4,3.9,4.7,5.8,5.7,1.5c0.7-2.1-0.9-4.6-3-4.7C59.8,43.3,58.1,44.2,58.4,45.9z"/>
		</g>
	</g>
	<g>
		<g>
			<path d="M54.1,30.7c2.2-2.1,4.1-4.5,5.9-6.9c0.4-0.5,0.4-1.4,0.3-1.9c-0.2-0.6-0.6-1.2-1.1-1.5c-0.6-0.3-1.3-0.5-1.9-0.3
				c-0.7,0.2-1.1,0.6-1.5,1.1c-0.4,0.5-0.7,1-1.1,1.5c0.1-0.2,0.3-0.3,0.4-0.5c-1.3,1.7-2.8,3.4-4.3,4.9c-0.9,0.9-1,2.6,0,3.5
				C51.6,31.6,53.1,31.7,54.1,30.7L54.1,30.7z"/>
		</g>
	</g>
	<g>
		<g>
			<path d="M45,25.6c-2.2-1.1-4.2-2.4-6.1-3.8c-0.5-0.4-1.4-0.4-1.9-0.3c-0.6,0.2-1.2,0.6-1.5,1.1c-0.3,0.6-0.5,1.3-0.3,1.9
				c0.1,0.2,0.2,0.4,0.3,0.6c0.2,0.4,0.5,0.7,0.9,0.9c1.9,1.4,4,2.7,6.1,3.8c0.6,0.3,1.3,0.4,1.9,0.3c0.6-0.2,1.2-0.6,1.5-1.1
				C46.5,27.9,46.2,26.3,45,25.6L45,25.6z"/>
		</g>
	</g>
</g>
</svg>
