<?xml version="1.0" encoding="utf-8"?>
<!-- Generator: Adobe Illustrator 27.7.0, SVG Export Plug-In . SVG Version: 6.00 Build 0)  -->
<svg version="1.1" id="Layer_1" xmlns="http://www.w3.org/2000/svg" xmlns:xlink="http://www.w3.org/1999/xlink" x="0px" y="0px"
	 viewBox="0 0 394.3 383.1" style="enable-background:new 0 0 394.3 383.1;" xml:space="preserve">
<style type="text/css">
	.st0{fill:#EAEAE9;stroke:#000000;stroke-width:4.206;stroke-miterlimit:10;}
	.st1{fill:#F5EC43;stroke:#000000;stroke-width:4.6017;stroke-miterlimit:10;}
	.st2{fill:#FFFFFF;}
	.st3{fill:#B4B6B7;stroke:#000000;stroke-width:4.6017;stroke-miterlimit:10;}
</style>
<g>
	<g>
		<path class="st0" d="M135.1,373.6c109,33.1,236.8-49,256.8-162.4c10.7-206-304.8-297.1-378-98.6C-26.9,210,44,336.4,135.1,373.6z"
			/>
		<g>
			<g>
				<path class="st1" d="M103.2,79.4c-59.6-0.9-69.1,107.8-20.3,126.9C163.2,231,172.7,87.4,103.2,79.4z"/>
				<path d="M103.2,79.4c69.5,7.9,60,151.6-20.3,126.9C34.1,187.3,43.6,78.5,103.2,79.4z M101,197.4c10.6-2.7,26.7-6.4,30.3-18.9
					C171.4,100.5,1.3,186.7,101,197.4z M104.1,127.3"/>
				<path class="st2" d="M101,197.4c-99.7-10.7,70.5-96.9,30.3-18.9C127.7,191,111.6,194.7,101,197.4z"/>
				<path class="st2" d="M104.1,127.3c-26.9-5.1-27.8-41.7,4.5-35.3C131.6,106.2,137.4,125.6,104.1,127.3z"/>
			</g>
			<path d="M267,59.1c-77.3-7.7-94,142.3-5.1,134.3c2.5-0.2,5.1-0.4,7.6-0.5c58.3-4,49.7-95.8,12.1-127.7
				C277.4,61.7,272.3,59.6,267,59.1z"/>
			<path class="st2" d="M249.6,184.1c-23.4,0-31.1-27.2-24.7-32.7c18.7-16.6,42.1-28.4,66.5-17.8c0,0,5.5,1.9,5.5,8.2
				C296.9,166.6,291.3,184.1,249.6,184.1z"/>
			<path class="st2" d="M270.1,71c39.1,20.3-14.1,37.7-27.6,18.9c-5.7-5.1-4.1-15.3,2.9-17.7C253.7,69.4,264.5,68.8,270.1,71z"/>
		</g>
		<g>
			<g>
				<path d="M222.8,232.7c12.8-2.4,24.8-9.4,33-19.6c0.9-1,1-2.5,0-3.5c-0.9-0.9-2.7-1.1-3.5,0c-7.8,9.5-18.7,16-30.8,18.3
					c-1.3,0.2-2.1,1.9-1.7,3.1C220.1,232.4,221.4,233,222.8,232.7L222.8,232.7z"/>
			</g>
		</g>
	</g>
	<path class="st3" d="M299,297.8c-10.1,32.3-69.9,40.2-70.8,10.6c1.9-17.1,25-37.2,44.3-39.2C288.8,268.9,304.7,281.6,299,297.8z"/>
	<path class="st3" d="M86.2,262.1c-1.6-0.7-3-1.1-4.4-1.1c-9.9-23.5-46.9-42.1-44.2-2.1c3.6,17.5,34.9,59.4,49.6,38.6
		C112.2,319.8,109.9,272.3,86.2,262.1z"/>
	<path class="st3" d="M119.9,29.9c12.5-19.6,54.7-17.6,50.1,1.6c-4.3,10.8-23.6,21-37.1,20C121.8,49.7,113.1,39.6,119.9,29.9z"/>
	<path class="st3" d="M126.5,355.8c7.2,6.6,23.9,10,32.6,8.3c9.2-2.5,9-12.2-0.9-18.8C138.9,334.2,111.3,342.6,126.5,355.8z"/>
	<path class="st3" d="M359.1,201.8c9.8-12.5,22.4,7.7,15.3,23.2c-4.6,8-13.6,8.9-17.6,2.1C353.8,220.7,354.1,207.8,359.1,201.8z"/>
</g>
</svg>
