<?xml version="1.0" encoding="utf-8"?>
<!-- Generator: Adobe Illustrator 27.7.0, SVG Export Plug-In . SVG Version: 6.00 Build 0)  -->
<svg version="1.1" id="Layer_1" xmlns="http://www.w3.org/2000/svg" xmlns:xlink="http://www.w3.org/1999/xlink" x="0px" y="0px"
	 viewBox="0 0 502.1 44.7" style="enable-background:new 0 0 502.1 44.7;" xml:space="preserve">
<style type="text/css">
	.st0{fill:#FFFFFF;}
</style>
<g>
	<g>
		<path class="st0" d="M300.4,29.4V12.3h2v17.1H300.4z"/>
		<path class="st0" d="M315.6,29.4v-8.3c0-1-0.2-1.8-0.7-2.3s-1.2-0.8-2.2-0.8c-1.3,0-2.3,0.4-3,1.1s-0.9,1.9-0.9,3.6v6.7h-1.9V16.6
			h1.6l0.3,1.8h0.1c0.4-0.6,1-1.1,1.7-1.5s1.5-0.5,2.4-0.5c1.5,0,2.7,0.4,3.5,1.1s1.2,1.9,1.2,3.6v8.4H315.6z"/>
		<path class="st0" d="M329.8,25.9c0,1.2-0.4,2.1-1.3,2.8s-2.1,1-3.8,1c-1.7,0-3-0.3-4-0.8V27c0.6,0.3,1.3,0.6,2,0.7s1.4,0.3,2,0.3
			c1,0,1.8-0.2,2.3-0.5s0.8-0.8,0.8-1.5c0-0.5-0.2-0.9-0.7-1.3s-1.3-0.8-2.5-1.3c-1.2-0.4-2-0.8-2.5-1.2s-0.9-0.7-1.1-1.1
			s-0.4-0.9-0.4-1.5c0-1,0.4-1.9,1.3-2.5s2-0.9,3.5-0.9c1.4,0,2.7,0.3,4.1,0.8l-0.7,1.6c-1.3-0.5-2.5-0.8-3.5-0.8
			c-0.9,0-1.6,0.1-2.1,0.4s-0.7,0.7-0.7,1.2c0,0.3,0.1,0.6,0.3,0.9s0.5,0.5,0.8,0.7s1.1,0.5,2.2,0.9c1.5,0.6,2.6,1.1,3.1,1.7
			S329.8,25,329.8,25.9z"/>
		<path class="st0" d="M337.1,28c0.3,0,0.7,0,1-0.1c0.3-0.1,0.6-0.1,0.8-0.2v1.5c-0.2,0.1-0.5,0.2-0.9,0.3s-0.8,0.1-1.1,0.1
			c-2.5,0-3.7-1.3-3.7-3.9v-7.6h-1.8v-0.9l1.8-0.8l0.8-2.7h1.1v3h3.7v1.5h-3.7v7.6c0,0.8,0.2,1.4,0.6,1.8
			C336,27.8,336.5,28,337.1,28z"/>
		<path class="st0" d="M341.3,13.1c0-0.4,0.1-0.8,0.3-1c0.2-0.2,0.5-0.3,0.8-0.3c0.3,0,0.6,0.1,0.8,0.3c0.2,0.2,0.3,0.5,0.3,1
			s-0.1,0.8-0.3,1c-0.2,0.2-0.5,0.3-0.8,0.3c-0.3,0-0.6-0.1-0.8-0.3C341.4,13.8,341.3,13.5,341.3,13.1z M343.4,29.4h-1.9V16.6h1.9
			V29.4z"/>
		<path class="st0" d="M351.7,28c0.3,0,0.7,0,1-0.1c0.3-0.1,0.6-0.1,0.8-0.2v1.5c-0.2,0.1-0.5,0.2-0.9,0.3s-0.8,0.1-1.1,0.1
			c-2.5,0-3.7-1.3-3.7-3.9v-7.6h-1.8v-0.9l1.8-0.8l0.8-2.7h1.1v3h3.7v1.5h-3.7v7.6c0,0.8,0.2,1.4,0.6,1.8
			C350.5,27.8,351,28,351.7,28z"/>
		<path class="st0" d="M357.8,16.6v8.3c0,1,0.2,1.8,0.7,2.3c0.5,0.5,1.2,0.8,2.2,0.8c1.3,0,2.3-0.4,2.9-1.1s0.9-1.9,0.9-3.6v-6.8
			h1.9v12.8H365l-0.3-1.7h-0.1c-0.4,0.6-1,1.1-1.7,1.5c-0.7,0.3-1.5,0.5-2.4,0.5c-1.6,0-2.7-0.4-3.5-1.1c-0.8-0.7-1.2-1.9-1.2-3.6
			v-8.4H357.8z"/>
		<path class="st0" d="M374.9,28c0.3,0,0.7,0,1-0.1c0.3-0.1,0.6-0.1,0.8-0.2v1.5c-0.2,0.1-0.5,0.2-0.9,0.3s-0.8,0.1-1.1,0.1
			c-2.5,0-3.7-1.3-3.7-3.9v-7.6H369v-0.9l1.8-0.8l0.8-2.7h1.1v3h3.7v1.5h-3.7v7.6c0,0.8,0.2,1.4,0.6,1.8
			C373.7,27.8,374.2,28,374.9,28z"/>
		<path class="st0" d="M383.3,28c0.3,0,0.7,0,1-0.1c0.3-0.1,0.6-0.1,0.8-0.2v1.5c-0.2,0.1-0.5,0.2-0.9,0.3s-0.8,0.1-1.1,0.1
			c-2.5,0-3.7-1.3-3.7-3.9v-7.6h-1.8v-0.9l1.8-0.8l0.8-2.7h1.1v3h3.7v1.5h-3.7v7.6c0,0.8,0.2,1.4,0.6,1.8
			C382.2,27.8,382.7,28,383.3,28z"/>
		<path class="st0" d="M399.7,18.1h-3.3v11.3h-1.9V18.1h-2.3v-0.9l2.3-0.7v-0.7c0-3.2,1.4-4.7,4.1-4.7c0.7,0,1.5,0.1,2.4,0.4
			l-0.5,1.6c-0.8-0.2-1.4-0.4-1.9-0.4c-0.7,0-1.3,0.2-1.6,0.7s-0.5,1.3-0.5,2.3v0.8h3.3V18.1z"/>
		<path class="st0" d="M413.1,23c0,2.1-0.5,3.7-1.6,4.9s-2.5,1.8-4.4,1.8c-1.1,0-2.2-0.3-3.1-0.8s-1.6-1.3-2.1-2.3
			c-0.5-1-0.7-2.2-0.7-3.5c0-2.1,0.5-3.7,1.6-4.9c1-1.2,2.5-1.8,4.4-1.8c1.8,0,3.2,0.6,4.3,1.8C412.6,19.3,413.1,20.9,413.1,23z
			 M403.3,23c0,1.6,0.3,2.9,1,3.8s1.6,1.3,2.9,1.3c1.3,0,2.2-0.4,2.9-1.3c0.7-0.9,1-2.1,1-3.8c0-1.6-0.3-2.9-1-3.7
			c-0.7-0.8-1.6-1.3-2.9-1.3c-1.3,0-2.2,0.4-2.9,1.3C403.6,20.1,403.3,21.3,403.3,23z"/>
		<path class="st0" d="M422.4,16.3c0.6,0,1.1,0,1.5,0.1l-0.3,1.8c-0.5-0.1-1-0.2-1.4-0.2c-1,0-1.9,0.4-2.7,1.3s-1.1,1.9-1.1,3.2v6.9
			h-1.9V16.6h1.6l0.2,2.4h0.1c0.5-0.8,1-1.5,1.7-1.9C420.8,16.6,421.6,16.3,422.4,16.3z"/>
		<path class="st0" d="M441.3,27.7h-0.1c-0.9,1.3-2.2,2-4,2c-1.7,0-3-0.6-3.9-1.7c-0.9-1.1-1.4-2.8-1.4-4.9s0.5-3.8,1.4-4.9
			s2.2-1.8,3.9-1.8c1.7,0,3.1,0.6,4,1.9h0.2l-0.1-0.9l0-0.9v-5.2h1.9v18.2h-1.6L441.3,27.7z M437.4,28c1.3,0,2.3-0.4,2.9-1.1
			s0.9-1.9,0.9-3.5V23c0-1.8-0.3-3.1-0.9-3.9c-0.6-0.8-1.6-1.2-2.9-1.2c-1.1,0-2,0.4-2.6,1.3c-0.6,0.9-0.9,2.1-0.9,3.8
			c0,1.6,0.3,2.9,0.9,3.7C435.4,27.6,436.2,28,437.4,28z"/>
		<path class="st0" d="M452.7,29.6c-1.9,0-3.4-0.6-4.5-1.7c-1.1-1.2-1.6-2.8-1.6-4.8c0-2.1,0.5-3.7,1.5-4.9s2.4-1.8,4.1-1.8
			c1.6,0,2.9,0.5,3.8,1.6s1.4,2.5,1.4,4.2v1.2h-8.8c0,1.5,0.4,2.7,1.1,3.4c0.7,0.8,1.7,1.2,3.1,1.2c1.4,0,2.7-0.3,4.1-0.9v1.7
			c-0.7,0.3-1.3,0.5-2,0.6C454.3,29.6,453.6,29.6,452.7,29.6z M452.2,18c-1,0-1.9,0.3-2.5,1c-0.6,0.7-1,1.6-1.1,2.8h6.7
			c0-1.2-0.3-2.2-0.8-2.8C454,18.3,453.2,18,452.2,18z"/>
		<path class="st0" d="M469,25.9c0,1.2-0.4,2.1-1.3,2.8s-2.1,1-3.8,1c-1.7,0-3-0.3-4-0.8V27c0.6,0.3,1.3,0.6,2,0.7
			c0.7,0.2,1.4,0.3,2,0.3c1,0,1.8-0.2,2.3-0.5c0.5-0.3,0.8-0.8,0.8-1.5c0-0.5-0.2-0.9-0.7-1.3s-1.3-0.8-2.5-1.3
			c-1.2-0.4-2-0.8-2.5-1.2s-0.9-0.7-1.1-1.1s-0.4-0.9-0.4-1.5c0-1,0.4-1.9,1.3-2.5c0.9-0.6,2-0.9,3.5-0.9c1.4,0,2.7,0.3,4.1,0.8
			l-0.7,1.6c-1.3-0.5-2.5-0.8-3.5-0.8c-0.9,0-1.6,0.1-2.1,0.4s-0.7,0.7-0.7,1.2c0,0.3,0.1,0.6,0.3,0.9s0.5,0.5,0.8,0.7
			c0.4,0.2,1.1,0.5,2.2,0.9c1.5,0.6,2.6,1.1,3.1,1.7C468.7,24.3,469,25,469,25.9z"/>
		<path class="st0" d="M472,13.1c0-0.4,0.1-0.8,0.3-1c0.2-0.2,0.5-0.3,0.8-0.3c0.3,0,0.6,0.1,0.8,0.3c0.2,0.2,0.3,0.5,0.3,1
			s-0.1,0.8-0.3,1c-0.2,0.2-0.5,0.3-0.8,0.3c-0.3,0-0.6-0.1-0.8-0.3C472.1,13.8,472,13.5,472,13.1z M474.1,29.4h-1.9V16.6h1.9V29.4z
			"/>
		<path class="st0" d="M488.8,16.6v1.2l-2.4,0.3c0.2,0.3,0.4,0.6,0.6,1.1c0.2,0.4,0.3,0.9,0.3,1.5c0,1.3-0.4,2.3-1.3,3
			c-0.9,0.8-2,1.1-3.5,1.1c-0.4,0-0.7,0-1.1-0.1c-0.8,0.4-1.2,1-1.2,1.7c0,0.4,0.1,0.6,0.4,0.8c0.3,0.2,0.8,0.3,1.5,0.3h2.3
			c1.4,0,2.5,0.3,3.2,0.9c0.7,0.6,1.1,1.4,1.1,2.6c0,1.4-0.6,2.5-1.7,3.3c-1.1,0.7-2.8,1.1-5,1.1c-1.7,0-3-0.3-3.9-0.9
			c-0.9-0.6-1.4-1.5-1.4-2.6c0-0.8,0.2-1.5,0.8-2c0.5-0.6,1.2-1,2.1-1.2c-0.3-0.1-0.6-0.4-0.8-0.7s-0.3-0.7-0.3-1.1
			c0-0.5,0.1-0.9,0.4-1.2c0.2-0.4,0.6-0.7,1.2-1c-0.7-0.3-1.2-0.7-1.6-1.4c-0.4-0.7-0.6-1.4-0.6-2.2c0-1.4,0.4-2.5,1.3-3.3
			s2-1.1,3.6-1.1c0.7,0,1.3,0.1,1.8,0.2H488.8z M478.5,31.6c0,0.7,0.3,1.2,0.9,1.6s1.4,0.5,2.5,0.5c1.6,0,2.8-0.2,3.6-0.7
			s1.2-1.2,1.2-2c0-0.7-0.2-1.2-0.6-1.4c-0.4-0.3-1.2-0.4-2.4-0.4h-2.3c-0.9,0-1.6,0.2-2.1,0.6S478.5,30.8,478.5,31.6z M479.6,20.7
			c0,0.9,0.3,1.6,0.8,2c0.5,0.5,1.2,0.7,2.1,0.7c1.9,0,2.8-0.9,2.8-2.8c0-1.9-1-2.9-2.9-2.9c-0.9,0-1.6,0.2-2.1,0.7
			S479.6,19.7,479.6,20.7z"/>
		<path class="st0" d="M500.2,29.4v-8.3c0-1-0.2-1.8-0.7-2.3c-0.5-0.5-1.2-0.8-2.2-0.8c-1.3,0-2.3,0.4-3,1.1
			c-0.6,0.7-0.9,1.9-0.9,3.6v6.7h-1.9V16.6h1.6l0.3,1.8h0.1c0.4-0.6,1-1.1,1.7-1.5c0.7-0.3,1.5-0.5,2.4-0.5c1.5,0,2.7,0.4,3.5,1.1
			c0.8,0.7,1.2,1.9,1.2,3.6v8.4H500.2z"/>
	</g>
	<g>
		<g>
			<path class="st0" d="M33.1,0H11C4.9,0,0,4.9,0,11v22.1c0,6.1,4.9,11,11,11h22.1c6.1,0,11-4.9,11-11V11C44.1,4.9,39.2,0,33.1,0z
				 M33.1,33.1H11V11h22.1V33.1z"/>
			<path class="st0" d="M22,12.9c-5,0-9,4.1-9,9c0,5,4,9,9,9c5,0,9-4,9-9C31,17,27,12.9,22,12.9z"/>
		</g>
		<path class="st0" d="M75,0l21.5,31.2v-24l-0.1-5.7h-6.5V0h13.8v1.5h-5.3l-0.1,5.7v37.2l-1,0.3L68.6,2.8v33.6l0.1,5.9h6.6v1.5H60.9
			v-1.5h5.7l0.1-5.9V7.2l-0.1-5.7h-5.7V0H75z"/>
		<path class="st0" d="M146.6,0v14h-1.9c-0.2-2.2-0.4-4.9-2.4-8.1c-2.2-3.8-5.3-4-8.3-4.1h-3.5l-0.1,5.6V36l0.1,6.3h6.7v1.5H117
			v-1.5h6.7l0.1-6.3V7.4l-0.1-5.6h-2.9c-3.6,0.1-6.3,0.1-8.9,4.2c-2,3.3-2.2,5.9-2.4,8h-1.8V0H146.6z"/>
		<path class="st0" d="M164.2,0l21.5,31.2v-24l-0.1-5.7h-6.5V0H193v1.5h-5.3l-0.1,5.7v37.2l-1,0.3L157.8,2.8v33.6l0.1,5.9h6.6v1.5
			h-14.3v-1.5h5.7l0.1-5.9V7.2l-0.1-5.7h-5.7V0H164.2z"/>
		<path class="st0" d="M217.1,0v1.5H211l-0.1,5.3v23.7c0.1,6.1,0.2,12,11.7,12c11.7,0,12.4-5.1,12.6-10.6V6.8l-0.1-5.3h-6.3V0h13.7
			v1.5h-5.4l-0.1,5.3v22.6c-0.1,8.1-0.1,15.1-16.2,15.1c-2.3,0-7.8-0.2-11.2-1.7c-5.5-2.4-5.6-7.2-5.7-13.2V6.8L204,1.5h-5.3V0
			H217.1z"/>
	</g>
	<path class="st0" d="M269.8,43.9c-0.3,0-0.5-0.2-0.5-0.5V0.6c0-0.3,0.2-0.5,0.5-0.5s0.5,0.2,0.5,0.5v42.9
		C270.3,43.7,270,43.9,269.8,43.9z"/>
</g>
</svg>
