<?xml version="1.0" encoding="utf-8"?>
<!-- Generator: Adobe Illustrator 27.7.0, SVG Export Plug-In . SVG Version: 6.00 Build 0)  -->
<svg version="1.1" id="Layer_1" xmlns="http://www.w3.org/2000/svg" xmlns:xlink="http://www.w3.org/1999/xlink" x="0px" y="0px"
	 viewBox="0 0 66.1 61.7" style="enable-background:new 0 0 66.1 61.7;" xml:space="preserve">
<style type="text/css">
	.st0{fill:#A1CF6D;}
	.st1{fill:#FFFFFF;stroke:#000000;stroke-width:4.6017;stroke-miterlimit:10;}
	.st2{stroke:#000000;stroke-miterlimit:10;}
</style>
<g>
	<g>
		<path class="st0" d="M28.5,5.3C20.8,3.5,9.6,8.7,12.3,17.8c0,0-0.9,2.7-0.9,2.7C-0.4,20.8-1,42,12.7,42.6c3.7-0.5,0.7,8.6,5.4,6.8
			c1.4,9.2,14.2,13,20.7,6.9c8.1,5.1,15.4-6.2,16.3-13.6c11.1,9.1,11.8-18.2-1.9-13.2c6.4-5.3,4-15.8-5.2-13.3
			C54.5-0.7,25.3-2,27.3,12.5"/>
		<g>
			<path d="M29.1,2.9C19.7,0.8,6.8,7.2,9.9,18.4c0-0.4,0-0.9,0-1.3c-0.3,0.9-0.6,1.8-0.9,2.7c0.8-0.6,1.6-1.2,2.4-1.8
				c-7.7,0.3-12.2,7.7-11.4,15c0.4,3.5,1.9,7,4.7,9.3c1.5,1.2,3.3,2.1,5.2,2.6c1,0.2,2,0.4,3,0.3c0.3,0-0.6-0.2-0.2,0
				c0,0-0.9-0.6-0.5-0.3c-0.4-0.3-0.3-0.3-0.1-0.1c0,0-0.1-0.5,0,0.1c0.4,1.6,0.4,3.4,1.2,4.9c1,2.1,3.3,2.9,5.5,2.1
				c-1-0.6-2.1-1.2-3.1-1.7c1.9,11.1,16.9,15.2,24.9,8c-1,0.1-2,0.3-3,0.4c10.4,6.3,18.9-6.8,20.1-15.7c-1.4,0.6-2.8,1.2-4.3,1.8
				c2.1,1.7,4.8,3.2,7.6,2.4c2.4-0.7,3.8-2.8,4.5-5.1c1.4-4.4,0.2-10.4-3.5-13.4c-2.7-2.2-6.2-2.4-9.4-1.3c0.8,1.4,1.6,2.8,2.4,4.2
				c3.4-2.9,5.3-7.9,3.8-12.2c-1.7-4.9-6.7-6.5-11.4-5.3c1,1,2.1,2.1,3.1,3.1c1.2-3.2,1.4-6.8-0.1-10c-1.2-2.5-3.4-4.4-5.9-5.5
				c-5.3-2.3-12.2-1.9-16.6,2c-2.5,2.3-3.6,5.7-3.2,9c0.2,1.3,1,2.5,2.5,2.5c1.2,0,2.7-1.2,2.5-2.5c-0.1-0.6-0.1-1.2-0.1-1.8
				c0-0.1,0-0.3,0-0.4c0-0.6-0.1,0.4,0,0c0.1-0.3,0.1-0.6,0.2-1c0.1-0.2,0.3-0.7,0-0.2c0.1-0.2,0.2-0.5,0.3-0.7
				c0.1-0.2,0.3-0.4,0.4-0.6c0.2-0.4,0,0.1-0.1,0.1c0.1-0.1,0.2-0.3,0.3-0.4c0.2-0.2,0.4-0.4,0.6-0.6c0.1-0.1,0.2-0.1,0.3-0.2
				c0,0-0.5,0.3-0.1,0.1c0.5-0.3,1-0.6,1.5-0.9c0.5-0.3-0.1,0,0.2-0.1c0.2-0.1,0.5-0.2,0.8-0.3c0.5-0.2,1.1-0.3,1.7-0.4
				c0.2,0,0.3,0,0.5-0.1c0.4-0.1-0.5,0-0.1,0C36.5,5.1,36.7,5,37,5c0.6,0,1.2,0,1.9,0c0.2,0,0.5,0,0.7,0.1c-0.7-0.1,0.2,0,0.3,0.1
				c0.6,0.1,1.1,0.3,1.7,0.4c0.3,0.1,0.5,0.2,0.8,0.3c0.4,0.1-0.5-0.3,0,0C42.5,5.9,42.6,6,42.7,6c0.5,0.3,1,0.6,1.4,0.9
				c0.5,0.3-0.3-0.3,0.2,0.2c0.2,0.2,0.4,0.3,0.6,0.5c0.2,0.2,0.3,0.4,0.5,0.6c-0.4-0.5,0.1,0.2,0.2,0.3c0.2,0.2,0.3,0.5,0.4,0.8
				c0.3,0.5-0.1-0.4,0,0c0.1,0.2,0.1,0.3,0.2,0.5c0.1,0.3,0.1,0.6,0.2,0.9c0,0.2,0.1,0.6,0,0c0,0.2,0,0.4,0,0.6c0,0.3,0,0.7,0,1
				c0,0.1,0,0.3,0,0.4c0,0.6,0.1-0.3,0,0.2c-0.2,0.9-0.4,1.8-0.7,2.6c-0.7,1.9,1.4,3.5,3.1,3.1c0.9-0.2,1.4-0.3,2.3-0.3
				c0.8,0-0.2-0.1,0.2,0c0.2,0,0.4,0.1,0.6,0.1c0.2,0,0.3,0.1,0.5,0.1c-0.3-0.1,0,0,0.1,0.1c0.2,0.1,0.8,0.6,0.5,0.3
				c0.1,0.1,0.6,0.6,0.5,0.5c-0.1-0.1,0.3,0.5,0.4,0.7c0.3,0.6-0.1-0.3,0.1,0.1c0.1,0.2,0.1,0.3,0.2,0.5c0,0.1,0.1,0.3,0.1,0.4
				c0.1,0.5,0-0.2,0,0.1c0,0.3,0,0.7,0,1.1c0,0.2,0,0.3,0,0.5c-0.1,0.7,0.1-0.2,0,0.2c-0.1,0.4-0.2,0.7-0.3,1.1
				c-0.4,1.2-1.3,2.5-2.5,3.6c-1.9,1.6,0.1,5,2.4,4.2c0.6-0.2,1.1-0.3,1.7-0.5c0.4-0.1-0.4,0,0.3,0c0.3,0,0.6,0,0.8,0
				c0.1,0,0.2,0,0.4,0c0.3,0-0.5-0.1-0.2,0c0.2,0.1,0.4,0.1,0.6,0.2c0.3,0.1,0.5,0.2,0.1,0c0.2,0.1,0.5,0.2,0.7,0.4
				c0.2,0.1,0.7,0.5,0.1,0.1c0.2,0.1,0.3,0.3,0.5,0.4c0.1,0.1,0.2,0.3,0.4,0.4c0.4,0.3-0.2-0.3,0.1,0.2c0.2,0.4,0.4,0.7,0.7,1.1
				c0.1,0.1,0.3,0.8,0.1,0.2c0.1,0.2,0.2,0.5,0.3,0.7c0.1,0.4,0.2,0.9,0.3,1.3c0,0.2,0.1,0.4,0.1,0.6c-0.1-0.8,0,0.1,0,0.3
				c0,0.4,0,0.9,0,1.3c0,0.2,0,0.4,0,0.6c0,0.7,0.1-0.1,0,0.2c-0.1,0.4-0.2,0.8-0.3,1.2c-0.1,0.2-0.1,0.4-0.2,0.5
				c-0.1,0.3,0.3-0.5-0.1,0.1c-0.1,0.2-0.2,0.3-0.3,0.5c-0.3,0.5-0.1,0.1,0,0c-0.1,0-0.2,0.3-0.3,0.3c0,0-0.2,0.1-0.2,0.2
				c0.4-0.6,0.4-0.2,0.1-0.1c-0.1,0-0.7,0.3-0.2,0.1c0.5-0.2-0.2,0.1-0.3,0c-0.3,0,0.7,0,0,0c-0.7,0,0.2,0.1-0.1,0
				C59,42,58.7,42,58.5,41.9c-0.1,0-0.4-0.2,0.1,0.1c-0.1-0.1-0.3-0.1-0.4-0.2c-0.3-0.1-0.5-0.3-0.7-0.4c-0.1-0.1-0.2-0.2-0.3-0.2
				c-0.4-0.3,0.3,0.2-0.2-0.2c-1.8-1.5-4-0.4-4.3,1.8c0-0.3,0,0.2-0.1,0.3c0,0.2-0.1,0.5-0.1,0.7c-0.1,0.4-0.2,0.9-0.3,1.3
				c-0.3,0.9-0.6,1.7-0.9,2.4c-0.8,1.7-1.8,3.4-3.1,4.8c-1.1,1.2-2.4,2.2-3.7,2.6c-1.5,0.5-2.7,0.2-4.3-0.7c-1-0.6-2.2-0.4-3,0.4
				c-5.3,4.8-15.3,1.6-16.6-5.8c-0.2-1.3-1.9-2.2-3.1-1.7c-0.2,0.1-0.5,0.1-0.6,0.2c0.1-0.1,0.5,0,0.1,0c0.6,0.1,0.4,0.1,0.2,0
				c0.1,0,0.8,0.6,0.5,0.3c0.4,0.4,0.1,0.2,0-0.1c0.2,0.8-0.1-0.4-0.1-0.5c-0.3-1.2-0.3-2.4-0.7-3.5c-0.6-1.8-1.9-3.1-3.9-3.2
				c-0.4,0-0.7,0-1.1,0c0.4,0-0.4-0.1-0.6-0.1c-0.4-0.1-0.8-0.2-1.2-0.3c-0.1,0-0.3-0.1-0.4-0.2c0.5,0.2-0.2-0.1-0.3-0.2
				c-0.3-0.2-0.6-0.3-0.9-0.5c0,0-0.6-0.4-0.3-0.2C8.5,38.8,8,38.4,8,38.4c-0.2-0.2-0.5-0.4-0.7-0.7c-0.1-0.1-0.2-0.3-0.4-0.4
				c-0.4-0.5,0.3,0.4-0.1-0.2c-0.4-0.6-0.7-1.1-1-1.7c-0.1-0.1-0.2-0.6,0-0.1c-0.1-0.1-0.1-0.3-0.1-0.4c-0.1-0.4-0.2-0.7-0.3-1.1
				c-0.1-0.3-0.1-0.6-0.2-0.9c-0.1-0.7,0,0.5,0-0.2c0-0.1,0-0.3,0-0.4C5,31.6,5,30.9,5,30.2c0-0.2,0-0.4,0.1-0.5
				c0-0.4-0.1,0.6,0-0.1c0.1-0.3,0.1-0.6,0.2-0.9c0.1-0.3,0.2-0.6,0.3-0.9c0.1-0.2,0.1-0.3,0.2-0.5C6,26.6,5.6,27.4,5.8,27
				c0.2-0.3,0.3-0.6,0.5-0.9c0.1-0.1,0.2-0.3,0.3-0.4c0.1-0.1,0.5-0.7,0.1-0.2c0.2-0.3,0.4-0.5,0.7-0.7c0.1-0.1,0.2-0.2,0.4-0.3
				c0.1-0.1,0.6-0.4,0.3-0.2c-0.1,0.1,0.6-0.3,0.8-0.5c0.1-0.1,0.3-0.2,0.5-0.2c0.1-0.1-0.3,0.1,0.2-0.1c0.4-0.1,0.7-0.2,1.1-0.3
				c0.1,0,0.3-0.1,0.4-0.1c-0.6,0.1,0.4,0,0.5,0c1.1,0,2.1-0.7,2.4-1.8c0.2-0.7,0.5-1.5,0.7-2.2c0.3-1.1-0.1-2.3-0.1-3.1
				c-0.1-1.2-0.1-1.8,0.4-3c-0.1,0.4,0.2-0.3,0.2-0.4c0.1-0.2,0.3-0.5,0.4-0.7c0.2-0.2,0.4-0.5,0.8-0.9c1.4-1.4,3.2-2.3,5.2-2.9
				c2.1-0.6,4.3-0.7,6.3-0.2C30.9,8.4,32.3,3.6,29.1,2.9L29.1,2.9z"/>
		</g>
	</g>
	<g>
		<path class="st1" d="M18.2,19.6c-2,4.5-1.7,11.7-1.8,15.5c0.1,1.2,0.9,2.6,2,3.1c0.9,0.4,1.7,0.5,2.8,0.5c2.4,0,4.6-1.3,5.7-3.5
			c0.6-1.2,0.9-2.5,1.3-3.6c0.4-1.7,1-4.2,1.2-6.8C25.9,22.4,22.2,20.3,18.2,19.6z"/>
		<path class="st2" d="M26.4,44.5c-0.6,0.1-1,0.6-0.9,1.3c0.1,0.7,0.5,1.6,1.1,2.4c1.5,1.9,3.7,2.2,4.9,2.2c0.4,0,0.9-0.2,1.1-0.5
			c1.9-2.4,4.6-4.3,7.7-5.8c0.5-0.2,0.3-0.9-0.3-0.9C35.5,43.6,31,44,26.4,44.5z"/>
		<path class="st0" d="M25.6,28.9c0.3,2.5-3,3.7-3.6,0.9c-0.4-1.3,0.6-2.9,1.9-3C24.8,27.3,25.8,27.9,25.6,28.9z"/>
	</g>
	<g>
		<path class="st1" d="M45.3,20.6c2,4.5,1.7,11.7,1.8,15.5c-0.1,1.2-0.9,2.6-2,3.1c-1.1,0.6-2.3,0.7-3.4,0.3c-0.5-0.2-1-0.2-1.6-0.3
			c-2.7-0.5-4-4.2-4.7-6.6c-0.4-1.7-1-4.2-1.2-6.8C37.6,23.3,41.3,21.3,45.3,20.6z"/>
		<path class="st0" d="M37.8,29.9c-0.3,2.5,3,3.7,3.6,0.9c0.4-1.3-0.6-2.9-1.9-3C38.7,28.3,37.7,28.8,37.8,29.9z"/>
	</g>
</g>
</svg>
